<?xml version="1.0" encoding="UTF-8" standalone="no"?>
<!-- Created with Inkscape (http://www.inkscape.org/) -->

<svg
   xmlns:dc="http://purl.org/dc/elements/1.1/"
   xmlns:cc="http://creativecommons.org/ns#"
   xmlns:rdf="http://www.w3.org/1999/02/22-rdf-syntax-ns#"
   xmlns:svg="http://www.w3.org/2000/svg"
   xmlns="http://www.w3.org/2000/svg"
   xmlns:sodipodi="http://sodipodi.sourceforge.net/DTD/sodipodi-0.dtd"
   xmlns:inkscape="http://www.inkscape.org/namespaces/inkscape"
   version="1.1"
   id="svg869"
   xml:space="preserve"
   width="566.92932"
   height="340.09906"
   viewBox="0 0 566.92931 340.09906"
   sodipodi:docname="top09.svg"
   inkscape:version="0.92.3 (2405546, 2018-03-11)"><metadata
     id="metadata875"><rdf:RDF><cc:Work
         rdf:about=""><dc:format>image/svg+xml</dc:format><dc:type
           rdf:resource="http://purl.org/dc/dcmitype/StillImage" /><dc:title></dc:title></cc:Work></rdf:RDF></metadata><defs
     id="defs873"><clipPath
       clipPathUnits="userSpaceOnUse"
       id="clipPath897"><path
         d="M 0,595.276 H 841.89 V 0 H 0 Z"
         id="path895"
         inkscape:connector-curvature="0" /></clipPath></defs><sodipodi:namedview
     pagecolor="#ffffff"
     bordercolor="#666666"
     borderopacity="1"
     objecttolerance="10"
     gridtolerance="10"
     guidetolerance="10"
     inkscape:pageopacity="0"
     inkscape:pageshadow="2"
     inkscape:window-width="1436"
     inkscape:window-height="852"
     id="namedview871"
     showgrid="false"
     inkscape:zoom="0.68595659"
     inkscape:cx="285.50535"
     inkscape:cy="150.01239"
     inkscape:window-x="0"
     inkscape:window-y="0"
     inkscape:window-maximized="0"
     inkscape:current-layer="g877" /><g
     id="g877"
     inkscape:groupmode="layer"
     inkscape:label="logo_Top09_barevne_cmyk"
     transform="matrix(1.3333333,0,0,-1.3333333,-275.75466,586.93732)"><g
       id="g879"
       transform="translate(409.6904,216.5967)"><path
         d="M 0,0 75.316,-31.468 75.314,55.487 0,0 75.314,-31.468 75.316,55.487 Z"
         style="fill:#ed192e;fill-opacity:1;fill-rule:nonzero;stroke:none"
         id="path881"
         inkscape:connector-curvature="0" /></g><g
       id="g883"
       transform="translate(429.1563,240.6387)"><path
         d="M 0,0 -75.316,31.46 V -55.494 L 0,0 -75.316,31.46 v -86.954 z"
         style="fill:#176fc1;fill-opacity:1;fill-rule:nonzero;stroke:none"
         id="path885"
         inkscape:connector-curvature="0" /></g><path
       d="M 632.013,298.471 H 461.934 v 141.732 h 170.079 z"
       style="fill:#176fc1;fill-opacity:1;fill-rule:nonzero;stroke:none"
       id="path887"
       inkscape:connector-curvature="0" /><path
       d="M 461.934,298.471 H 206.816 v 141.732 h 255.118 z"
       style="fill:#ed192e;fill-opacity:1;fill-rule:nonzero;stroke:none"
       id="path889"
       inkscape:connector-curvature="0" /><g
       id="g891"><g
         id="g893"
         clip-path="url(#clipPath897)"><g
           id="g899"
           transform="translate(524.5469,349.1377)"><path
             d="m 0,0 c 0.944,2.181 1.619,4.614 2.027,7.3 0.407,2.685 0.61,5.949 0.61,9.79 0,3.45 -0.188,6.559 -0.561,9.326 -0.375,2.767 -1.002,5.225 -1.881,7.373 -0.911,2.213 -2.115,3.922 -3.613,5.127 -1.497,1.204 -3.336,1.807 -5.518,1.807 -2.212,0 -4.068,-0.595 -5.566,-1.783 -1.497,-1.188 -2.718,-2.873 -3.662,-5.053 -0.846,-1.986 -1.465,-4.419 -1.856,-7.3 -0.39,-2.881 -0.585,-6.047 -0.585,-9.497 0,-3.613 0.171,-6.69 0.513,-9.229 0.342,-2.539 0.968,-4.98 1.879,-7.324 0.815,-2.116 1.986,-3.825 3.516,-5.127 1.53,-1.302 3.418,-1.953 5.664,-1.953 2.084,0 3.89,0.586 5.42,1.758 C -2.083,-3.613 -0.879,-2.019 0,0 m 13.77,36.377 c 2.474,-2.605 4.304,-5.575 5.494,-8.911 1.187,-3.337 1.781,-6.796 1.781,-10.376 0,-4.265 -0.74,-8.114 -2.221,-11.548 -1.482,-3.435 -3.508,-6.34 -6.08,-8.716 -2.701,-2.474 -5.843,-4.362 -9.424,-5.664 -3.58,-1.302 -7.698,-1.953 -12.353,-1.953 -4.915,0 -9.252,0.765 -13.012,2.295 -3.76,1.53 -6.893,3.548 -9.4,6.055 -2.474,2.473 -4.354,5.387 -5.639,8.74 -1.287,3.352 -1.93,6.95 -1.93,10.791 0,3.808 0.612,7.34 1.832,10.596 1.221,3.254 3.1,6.201 5.639,8.837 2.475,2.572 5.615,4.631 9.424,6.177 3.808,1.546 8.187,2.32 13.135,2.32 5.111,0 9.57,-0.798 13.379,-2.393 3.808,-1.595 6.933,-3.679 9.375,-6.25"
             style="fill:#ffffff;fill-opacity:1;fill-rule:nonzero;stroke:none"
             id="path901"
             inkscape:connector-curvature="0" /></g><g
           id="g903"
           transform="translate(590.5645,362.126)"><path
             d="m 0,0 c 0,0.456 0.017,1.009 0.049,1.66 0.033,0.651 0.049,1.286 0.049,1.904 0,7.813 -0.936,13.794 -2.807,17.945 -1.873,4.15 -4.306,6.225 -7.301,6.225 -2.896,0 -5.248,-1.579 -7.054,-4.736 -1.807,-3.158 -2.711,-7.715 -2.711,-13.672 0,-5.208 0.92,-9.359 2.759,-12.451 1.838,-3.093 4.256,-4.639 7.25,-4.639 1.889,0 3.63,0.374 5.225,1.123 1.596,0.749 3.076,2.149 4.443,4.2 0,0.162 0.017,0.447 0.049,0.854 C -0.016,-1.18 0,-0.651 0,0 m 17.822,2.686 c 0,-11.85 -4.004,-21.542 -12.011,-29.078 -8.008,-7.535 -18.946,-12.214 -32.813,-14.038 l -1.123,4.834 5.176,0.879 c 4.004,1.14 7.324,2.605 9.961,4.395 2.636,1.79 4.801,3.874 6.494,6.25 1.758,2.441 3.093,5.029 4.004,7.763 0.912,2.735 1.595,5.55 2.051,8.448 -2.865,-2.507 -5.639,-4.159 -8.325,-4.956 -2.685,-0.798 -5.705,-1.197 -9.058,-1.197 -2.799,0 -5.42,0.554 -7.862,1.66 -2.441,1.107 -4.556,2.621 -6.347,4.541 -1.823,1.954 -3.246,4.305 -4.272,7.056 -1.025,2.751 -1.539,5.737 -1.539,8.96 0,6.868 2.637,12.557 7.91,17.066 5.274,4.508 11.866,6.762 19.776,6.762 8.561,0 15.365,-2.653 20.41,-7.959 5.046,-5.306 7.568,-12.435 7.568,-21.386"
             style="fill:#ffffff;fill-opacity:1;fill-rule:nonzero;stroke:none"
             id="path905"
             inkscape:connector-curvature="0" /></g><g
           id="g907"
           transform="translate(294.6079,389.7266)"><path
             d="m 0,0 h -3.809 c -1.006,2.962 -2.622,6.136 -4.847,9.521 -2.224,3.386 -4.279,5.208 -6.162,5.469 -1.04,0.13 -2.323,0.244 -3.849,0.342 -1.526,0.098 -2.842,0.147 -3.946,0.147 h -2.289 v -54.346 c 0,-1.172 0.211,-2.206 0.634,-3.101 0.423,-0.895 1.253,-1.603 2.491,-2.124 0.748,-0.293 1.912,-0.594 3.491,-0.903 1.578,-0.31 2.921,-0.529 4.028,-0.659 v -3.809 h -38.623 v 3.809 c 0.944,0.097 2.271,0.236 3.98,0.415 1.709,0.178 2.872,0.398 3.491,0.659 1.269,0.52 2.116,1.221 2.539,2.1 0.423,0.878 0.635,1.92 0.635,3.125 v 54.834 h -2.29 c -1.105,0 -2.42,-0.049 -3.946,-0.147 -1.527,-0.098 -2.809,-0.212 -3.848,-0.342 -1.885,-0.261 -3.938,-2.083 -6.163,-5.469 C -60.708,6.136 -62.324,2.962 -63.33,0 h -3.809 V 19.824 H 0 Z"
             style="fill:#ffffff;fill-opacity:1;fill-rule:nonzero;stroke:none"
             id="path909"
             inkscape:connector-curvature="0" /></g><g
           id="g911"
           transform="translate(348.0767,352.2402)"><path
             d="m 0,0 c 1.465,2.966 2.522,6.325 3.174,10.074 0.651,3.749 0.976,7.988 0.976,12.715 0,4.01 -0.285,7.914 -0.854,11.712 -0.57,3.798 -1.538,7.181 -2.905,10.148 -1.4,2.966 -3.256,5.347 -5.567,7.14 -2.311,1.792 -5.192,2.69 -8.642,2.69 -5.892,0 -10.369,-2.797 -13.428,-8.388 -3.06,-5.591 -4.59,-13.489 -4.59,-23.694 0,-4.336 0.334,-8.427 1.001,-12.274 0.667,-3.847 1.717,-7.206 3.149,-10.074 1.465,-2.902 3.321,-5.159 5.567,-6.773 2.246,-1.614 5.013,-2.421 8.301,-2.421 3.222,0 5.989,0.815 8.3,2.446 C -3.207,-5.07 -1.367,-2.836 0,0 m 12.549,49.596 c 3.418,-3.125 6.128,-6.902 8.13,-11.328 2.002,-4.428 3.003,-9.473 3.003,-15.137 0,-5.046 -0.847,-9.847 -2.539,-14.404 C 19.45,4.169 17.008,0.247 13.818,-3.041 10.465,-6.459 6.526,-9.12 2.002,-11.024 c -4.525,-1.905 -9.912,-2.857 -16.162,-2.857 -5.046,0 -9.815,0.83 -14.307,2.49 -4.492,1.661 -8.447,4.069 -11.865,7.227 -3.386,3.092 -6.071,6.852 -8.057,11.279 -1.986,4.427 -2.978,9.359 -2.978,14.795 0,5.664 0.968,10.799 2.905,15.405 1.937,4.606 4.598,8.553 7.983,11.841 3.353,3.223 7.333,5.705 11.939,7.447 4.606,1.741 9.513,2.612 14.722,2.612 5.175,0 10.034,-0.847 14.575,-2.539 4.541,-1.693 8.472,-4.053 11.792,-7.08"
             style="fill:#ffffff;fill-opacity:1;fill-rule:nonzero;stroke:none"
             id="path913"
             inkscape:connector-curvature="0" /></g><g
           id="g915"
           transform="translate(422.4922,389.7266)"><path
             d="m 0,0 c 0,5.208 -1.049,9.074 -3.149,11.597 -2.1,2.522 -5.835,3.784 -11.206,3.784 h -4.053 v -30.42 h 2.051 c 5.338,0 9.399,1.228 12.183,3.686 C -1.391,-8.895 0,-5.111 0,0 m 19.043,2.49 c 0,-3.906 -0.805,-7.267 -2.416,-10.083 -1.611,-2.816 -3.834,-5.102 -6.666,-6.86 -2.93,-1.823 -6.273,-3.142 -10.033,-3.955 -3.761,-0.814 -7.984,-1.221 -12.672,-1.221 h -5.664 v -19.482 c 0,-1.172 0.22,-2.19 0.659,-3.052 0.44,-0.863 1.278,-1.555 2.515,-2.075 0.651,-0.261 1.709,-0.537 3.174,-0.83 1.465,-0.293 2.702,-0.489 3.711,-0.586 v -3.809 h -37.549 v 3.809 c 0.944,0.097 2.197,0.236 3.76,0.415 1.562,0.178 2.653,0.398 3.271,0.659 1.27,0.52 2.108,1.155 2.515,1.904 0.407,0.749 0.61,1.79 0.61,3.125 V 9.326 c 0,1.139 -0.195,2.124 -0.586,2.954 -0.39,0.83 -1.237,1.522 -2.539,2.075 -0.911,0.391 -2.124,0.741 -3.637,1.05 -1.514,0.309 -2.645,0.513 -3.394,0.611 v 3.808 H -7.666 C 1.286,19.824 7.976,18.4 12.402,15.552 16.83,12.703 19.043,8.35 19.043,2.49"
             style="fill:#ffffff;fill-opacity:1;fill-rule:nonzero;stroke:none"
             id="path917"
             inkscape:connector-curvature="0" /></g></g></g></g></svg>