<svg version="1" xmlns="http://www.w3.org/2000/svg" width="933.333" height="933.333" viewBox="0 0 700.000000 700.000000"><path d="M192.9.4c-.2.2-2.9.7-5.9 1-33.1 4-67.6 25.4-87.1 54.2C94.8 63.2 86 79.9 86 82c0 .6-.4 1.8-.9 2.8-2.8 5-6.6 22.8-7.6 35.7-.3 3.8-.8 8.1-1 9.5-.4 2.5-1 7.4-2 18-.6 5.9-1.3 13-2 19.5-.3 2.2-.7 6.2-1 9-.3 2.7-.7 6.8-.9 9-.3 2.2-.7 6.9-1.1 10.5-.3 3.6-.8 8.2-1 10.2-1 7.8-1.4 11.5-2 17.8-.6 6.4-1 10.1-2 19.2-.3 2.7-.7 7.2-1 10-.3 2.9-.8 6.9-1 8.8-2 17.3-2.3 20.7-3 28.5-.4 3.8-.8 8.3-1 10-.2 1.6-.6 5.9-1 9.5-.3 3.6-.8 7.6-1 9-.3 1.4-.7 5.4-1 9-.3 3.6-.7 8.1-1 10-.7 6.3-1.5 13.4-2 19.7-.3 3.4-.7 7-.9 8-.2 1-.7 5.6-1.1 10.3-.4 4.7-.9 9.3-1 10.2-.2.9-.6 4.8-1 8.5-.3 3.7-.8 8.1-1 9.8-.2 1.6-.7 6.1-1 10-.4 3.8-.8 8.1-1 9.5-.3 1.4-.7 5.5-1 9.1-.3 3.6-.7 7.4-.9 8.6-.3 1.1-.7 5.6-1.1 9.9-.3 4.3-.8 9-1 10.4-.3 1.4-.7 5.4-1.1 9-.3 3.6-.7 7.6-.9 9-.1 1.4-.6 6.1-1 10.5s-.9 8.8-1 9.7c-.2.9-.7 4.8-1 8.5-.4 3.7-.9 8.1-1.1 9.8-1 5.7-1.2 25-.4 32 2.4 20.1 9.3 39.9 19.5 55.4 1.9 2.9 3.5 5.4 3.5 5.6 0 2.6 23.8 25.5 32.5 31.3 14.3 9.5 33.4 17.5 47.5 19.8 1.4.3 3.6.7 5 .9 1.4.3 5.2.7 8.5 1 3.3.3 7.6.7 9.5 1 1.9.2 6.2.7 9.5 1 3.3.4 7.6.8 9.5 1 1.9.2 6.4.7 10 1 3.6.3 7.6.8 9 1 1.4.3 5.6.7 9.3 1 3.8.4 8.3.8 10 1 1.8.2 6.1.7 9.7 1 3.6.3 7.6.8 9 1 1.4.2 5.7.7 9.5 1 3.9.4 8.1.8 9.5 1 1.4.2 6.1.7 10.5 1 4.4.4 8.2.8 8.5 1 .3.2 4.6.6 9.5 1 5 .4 9.8.9 10.9 1.1 1 .2 4.4.6 7.5.9 3.1.3 7.6.8 10.1 1 2.5.3 6.8.8 9.5 1 8 .8 14.7 1.6 18.5 2 5.1.6 11.7 1.3 19 2 3.6.3 8.1.8 10 1 1.9.2 6 .7 9 1 5.4.5 7.6.8 19.5 2.1 3.3.3 7.4.7 9 .9 1.7.1 5.7.6 9 .9 10.6 1.2 14.9 1.7 19 2.1 11.9 1.2 16.3 1.7 19 2 1.7.2 6.4.7 10.5 1.1 4.1.3 7.9.9 8.3 1.1 1.6.9 32.1 1.1 37.2.3 9.5-1.6 12-2.1 17.9-3.6 7.5-2 23-8.4 28.4-11.8 2.3-1.4 4.5-2.6 4.9-2.6 1.7 0 19.4-14.4 25.4-20.7 20.7-21.6 32.8-49.2 35.4-80.8.3-3.3.8-7.8 1-10 1.1-8.1 1.5-11.1 2-17 .6-6.7 1.2-12.6 2-19.8.3-2.6.7-7.1 1-10 .3-2.8.8-6.8 1-8.7.2-1.9.7-6.4 1-10 .3-3.6.8-7.6 1-9 .4-2.5 1.5-13 2-18.5.5-6.4 1.7-18.1 2.1-21 .3-1.6.7-5.2.9-8 .3-2.7.7-7 1-9.5.3-2.5.8-7 1-10 .3-3 .7-7.1 1-9 .2-1.9.7-6 1-9 1.3-13.3 1.8-17.7 3-28.5.2-2.2.7-6.5 1-9.5.3-3 1-9.8 1.5-15 .6-5.2 1.3-11.6 1.5-14.3.3-2.6.7-6.8 1-9.5.3-2.6.7-6.5 1-8.7.5-5.5 3.4-33.1 4-38 .2-2.2.7-7.2 1-11 .3-3.9.8-8.1 1-9.5.3-1.4.7-5 1-8 .3-3 .7-7.3.9-9.5.3-2.2.7-7.2 1.1-11 .3-3.9.8-8.1 1.1-9.5.2-1.4.6-5.2.9-8.5.3-3.3.8-7.6 1-9.5.2-1.9.7-6.2 1-9.5.3-3.3.8-7.4 1-9 2.3-17.4 2.5-39 .6-49-.7-3.3-1.4-7.1-1.7-8.5-1.1-5.9-5.9-19.2-10.1-27.7-10.8-22.2-30.3-42.8-51.7-54.8-6.1-3.4-22.3-10.3-25.6-11-.8-.2-4.2-1-7.5-1.8-3.3-.9-9.8-2.1-14.4-2.7-8.4-1.1-9.8-1.3-22.6-2.4-3.8-.4-8.3-.9-10-1.1-1.6-.2-5.7-.7-9-1-3.3-.3-7.6-.8-9.5-1-1.9-.2-6.4-.7-10-1-6.9-.6-12.2-1.2-18-2-3.3-.4-7.6-.8-21-2-3-.3-7.3-.8-9.5-1.2-2.2-.3-5.3-.7-7-.8-4-.3-17.2-1.6-21-2.1-4.1-.5-10.9-1.2-17.5-1.9-6.7-.6-14.3-1.5-19-2-1.9-.2-6.4-.7-10-1-3.6-.4-7.6-.8-9-1-1.4-.2-5.9-.6-10-1s-8.6-.8-10-1c-1.4-.3-5-.7-8-1-11.3-1.1-24.6-2.5-28.5-2.9-2.2-.3-6.8-.8-10.2-1.1-3.5-.3-8.1-.8-10.3-1-2.2-.3-5.7-.7-7.9-1-2.1-.2-8.7-.9-14.7-1.5s-12.2-1.2-13.9-1.5c-1.6-.2-6.3-.7-10.4-1-4.1-.4-8.4-.9-9.5-1.1-2.8-.7-33.1-1.6-33.7-1zM299 86.5c4.1.4 8.2.9 9 1.1.8.1 2.3.3 3.3.3 1.9.1 1.9-.3.2 15.1-.2 1.9-.6 6.4-1 10-.3 3.6-.7 7.6-.9 9-1.1 6.6-1.9 16.3-2 23.5 0 6.4.4 8.8 2.1 12 5.4 10.1 12 13.7 27.5 15 2.9.3 7.1.7 9.3 1 2.2.3 6.9.7 10.5 1.1 3.6.3 7.6.7 9 1 1.4.2 5.4.6 9 .9 3.6.3 7.9.7 9.5 1 1.7.2 6.2.7 10 1 3.9.4 8.1.8 9.5 1 2.7.4 9.5 1.2 17.5 2 14.2 1.4 35.4 3.6 38.5 4 20.9 2.6 28.1 2.8 33.6 1.1 6.7-2.1 12.5-7 15.3-13 2-4.3 2.5-7.1 3.6-19.1.3-3.3.7-7.1 1-8.5.2-1.4.7-5.7 1-9.5 1.2-13.7 2.5-25.8 3.1-26.6.2-.3 2.8-.2 5.8.2 3.1.4 8.8 1 12.8 1.4 17.4 1.5 27.2 5.7 37.3 15.9 14.6 14.7 17.1 26.2 13 60.1-.2 1.6-.6 5.7-1 9s-.8 7.4-1 9.1c-.2 1.7-.7 6.6-1 11-.4 4.3-.9 8.7-1.1 9.8-.2 1-.6 5.1-1 9-.3 3.9-.8 8.2-1 9.6-.2 1.4-.6 5.2-.9 8.5-.3 3.3-.8 7.6-1 9.5-.3 1.9-.7 6-1 9-1.1 11.5-2 20.1-3 28.5-.2 1.6-.6 5.9-.9 9.5-1.4 13.7-1.7 16.6-2.1 20-.3 1.9-.7 5.7-1 8.5-1.5 14.6-1.7 15.6-3.4 15.1-.9-.3-5-.8-9.1-1.1-4.1-.4-8.6-.8-10-1-1.4-.3-5.1-.7-8.3-1-3.2-.2-7.7-.7-10-1-2.3-.3-6.2-.7-8.7-.9-4.9-.5-23.4-2.4-29-3.1-1.9-.2-6.4-.7-10-1-8.8-.8-10-1.3-10.1-3.8-.5-13.4-10-32.7-22.8-46-11.3-11.9-29.6-21.6-46.1-24.6-1.9-.3-9.1-.5-16-.5-10.5.1-14 .6-21.5 2.8-24.1 7.2-42.6 23.1-53.1 45.4l-3.9 8.3-7-.6c-3.8-.4-8.3-.8-10-1-1.6-.2-5.9-.7-9.5-1-3.6-.3-7.9-.8-9.6-1-1.6-.2-5.9-.7-9.5-1-3.5-.3-7.7-.8-9.4-1-1.6-.2-5.7-.6-9-1-3.3-.3-7.3-.8-9-1-1.6-.3-5.9-.7-9.5-1-3.6-.3-7.8-.8-9.5-1-1.6-.2-3.4-.4-3.8-.4-.9-.1-.4-8.2 1.3-22.6.5-4.4 1.2-10.9 1.5-14.4.4-3.6.8-7.9 1-9.5.2-1.7.6-6 1-9.6.3-3.6.8-7.6 1-9 .3-2.3 1-8.2 2-18.5.2-2.2.6-6.9 1-10.5.3-3.6.8-7.6 1-9 .3-2.2.6-5.2 2.1-20 .4-4.6 1.9-18.5 2.9-27.5.9-8.5 1.4-13 2-19 1.2-11.9 2.5-20.8 3.6-24.8 4.2-15.9 19.5-30.6 36.4-35 5.3-1.4 17.2-1.5 29.5-.2zm101.4 222.6c13.5 3.5 27.6 16.1 31.1 27.8l.7 2.4-6.8-.8c-3.8-.4-8.2-.9-9.9-1-1.6-.2-6.1-.6-9.8-1-3.7-.3-7.6-.8-8.6-1-.9-.2-5.1-.6-9.2-.9-4.1-.4-9-.9-10.9-1.1-1.9-.3-5.7-.7-8.5-1-2.7-.2-7.5-.8-10.5-1.1-3-.4-6.3-.7-7.2-.6-2.5.1-2.3-.8 1.5-5.3 12.1-14.9 30.3-21.1 48.1-16.4zM227 356.4c3 .3 8.2.8 11.5 1.1 3.3.3 7.6.8 9.5 1 1.9.2 5.8.6 8.5.9 2.8.3 7 .8 9.5 1 4 .5 8.1.9 20 2.1 10.3 1 15.7 1.7 17.1 2.1 1 .3 2 2.5 2.8 6.2 7 33 32.9 58.9 65.8 65.7 8 1.7 23.2 2.2 29.3 1.1 19.6-3.7 36.4-12.6 49.1-25.9 5.5-5.8 13.1-17.3 15.9-24.1l2.4-5.6 7 .5c3.9.4 8.2.8 9.6 1 3.3.5 17.2 2 28.5 3 3.3.3 7.1.8 8.5 1 1.4.2 5.4.6 9 1 3.6.3 7.9.8 9.5 1 5.3.6 16.9 1.8 19.5 2 1.4.2 3.1.3 3.8.4.8.1 1.1 1.3.8 3.8-.2 2.1-.7 6.7-1.1 10.3-.4 3.6-.8 7.6-1 9-.2 1.4-.7 5.4-1 9-1.1 11.4-1.4 14.4-2 19-.2 2.5-.7 7-1 10-.3 3-.8 7.1-1 9-.2 1.9-.7 6.4-1 10-.3 3.6-1 10.1-1.5 14.5s-1.2 10.7-1.5 14c-.3 3.3-.8 7.3-1 9-.2 1.6-.6 6.1-1 10-.3 3.8-.8 8.1-1 9.5-.3 1.4-.7 5.4-1 9-.3 3.6-.7 8.1-1 10-.2 1.9-.7 6-1 9-.3 3-.8 7.1-1 9-.2 1.9-.7 6.4-1.1 10-1.2 12.8-7.7 25.8-16.8 33.8-5.7 5-10.6 7.8-18.5 10.5-6.2 2.2-8.6 2.5-16.9 2.2-8.8-.3-21.4-1.3-25.2-2-.8-.2-2.3-.4-3.3-.4-1.3-.1-1.7-.7-1.3-1.9.5-1.8 1.1-7 2.1-18.2.4-3.6.8-7.9 1-9.5 2.1-17 2.9-25.7 2.7-30.5-.3-6.5-4.5-14.4-9.9-18.5-5.3-4-10.5-5.3-29.3-7-3.6-.3-7.6-.8-9-1-1.4-.2-5.4-.7-9-1-3.6-.4-8.1-.8-10-1-1.9-.2-8.2-.9-14-1.5-5.8-.6-12.1-1.3-14-1.5-1.9-.2-6.4-.7-10-1-3.6-.3-8.1-.8-10-1-1.9-.2-6.2-.7-9.5-1-7.2-.6-15.1-1.5-18.5-2-1.4-.2-5.8-.7-9.7-1-4-.4-8.1-.8-9-1-1-.1-5.9-.6-11-1-11.5-.9-17.3.9-23.7 7.2-4.9 4.7-7.2 10.8-8.1 21.3-.3 3.6-.8 7.6-1 9-.2 1.4-.7 5.9-1 10-.3 4.1-.8 8.6-1 10-.2 1.4-.7 5.4-1.1 9-.7 6.6-1 9.9-1.3 11.3 0 .5-.4.6-.8.4-.5-.3-3.9-.8-7.8-1.2-14.4-1.4-16.1-1.6-19-2.1-20.4-3.5-36.1-17.4-41.9-37.3-1.2-4.1-1.5-8.4-1.1-17.5.2-6.7.6-13 .8-14.1.3-1.1.8-5.4 1.2-9.5.3-4.1.8-8.9 1-10.5.2-1.7.7-5.5 1-8.5.3-3 .8-7.8 1-10.5.5-5 1.1-10.7 2-18 .2-2.2.6-6.3.9-9 .8-7.5 3.6-33.4 4.1-38.5.3-2.5.7-7 1-10 .5-5.9 1.3-13.4 2-19 .3-1.9.7-6.7 1.1-10.5.3-3.9.8-7.7.9-8.5.1-.8.6-4.9 1-9 1-11.3.5-10.7 8.3-9.9 3.7.4 9.2 1 12.2 1.3zm135.5 14.2c2.2.2 5.6.6 7.5.9 1.9.2 6.4.7 10 1 7.2.7 12.8 1.3 18 2 1.9.2 6.7.7 10.5 1 3.9.4 9 .9 11.5 1.2 2.5.3 5.3.5 6.3.4 1.7 0 1.7.2 0 3.1-4.5 7.6-17.6 16.4-28.1 18.7-6.8 1.5-18.9.6-25.5-1.9-11-4.1-22.7-15.3-26.4-25.1l-1.2-3.1 6.7.7c3.7.3 8.5.8 10.7 1.1z"/></svg>