<?xml version="1.0" encoding="UTF-8" standalone="no"?>
<!-- Created with Inkscape (http://www.inkscape.org/) -->

<svg
   xmlns:dc="http://purl.org/dc/elements/1.1/"
   xmlns:cc="http://creativecommons.org/ns#"
   xmlns:rdf="http://www.w3.org/1999/02/22-rdf-syntax-ns#"
   xmlns:svg="http://www.w3.org/2000/svg"
   xmlns="http://www.w3.org/2000/svg"
   xmlns:sodipodi="http://sodipodi.sourceforge.net/DTD/sodipodi-0.dtd"
   xmlns:inkscape="http://www.inkscape.org/namespaces/inkscape"
   width="531.10156"
   height="134.33958"
   viewBox="0 0 140.52062 35.544016"
   version="1.1"
   id="svg8"
   inkscape:version="0.92.3 (2405546, 2018-03-11)"
   sodipodi:docname="logo-green.svg"
   inkscape:export-filename="D:\Users\domin\Documents\Piráti\Grafika\Referendum\logo.png"
   inkscape:export-xdpi="96"
   inkscape:export-ydpi="96">
  <defs
     id="defs2" />
  <sodipodi:namedview
     id="base"
     pagecolor="#ffffff"
     bordercolor="#666666"
     borderopacity="1.0"
     inkscape:pageopacity="0.0"
     inkscape:pageshadow="2"
     inkscape:zoom="0.5"
     inkscape:cx="327.82681"
     inkscape:cy="-48.854652"
     inkscape:document-units="px"
     inkscape:current-layer="layer1"
     showgrid="false"
     inkscape:window-width="1680"
     inkscape:window-height="1028"
     inkscape:window-x="0"
     inkscape:window-y="0"
     inkscape:window-maximized="0"
     showguides="false"
     units="px" />
  <metadata
     id="metadata5">
    <rdf:RDF>
      <cc:Work
         rdf:about="">
        <dc:format>image/svg+xml</dc:format>
        <dc:type
           rdf:resource="http://purl.org/dc/dcmitype/StillImage" />
        <dc:title />
      </cc:Work>
    </rdf:RDF>
  </metadata>
  <g
     inkscape:groupmode="layer"
     id="layer2"
     inkscape:label="pozadí"
     transform="translate(-66.998707,-132.14605)" />
  <g
     inkscape:label="Vrstva 1"
     inkscape:groupmode="layer"
     id="layer1"
     transform="translate(-66.998707,-143.39604)">
    <g
       style="font-style:italic;font-variant:normal;font-weight:bold;font-stretch:normal;font-size:7.47440863000000011px;line-height:1.25;font-family:'Asap Condensed';-inkscape-font-specification:'Asap Condensed, Bold Italic';letter-spacing:0px;word-spacing:0px;opacity:1;fill:#529643;fill-opacity:1;stroke:none;stroke-width:0.08759074"
       id="text506" />
    <g
       id="g4183"
       transform="matrix(1.2092022,0,0,1.2092022,-19.291068,-9.8463682)"
       style="fill:#529643;fill-opacity:1">
      <g
         id="g4062"
         transform="matrix(1.7563272,0,0,1.7563272,48.559927,-147.65915)"
         style="fill:#529643;fill-opacity:1">
        <path
           inkscape:connector-curvature="0"
           style="opacity:1;fill:#529643;fill-opacity:1;stroke-width:0.03463421"
           d="m 16.844116,156.22908 c -1.46654,-0.007 -2.720266,1.09338 -2.877426,2.58436 l -0.968205,9.18637 c -0.167638,1.59038 0.977627,3.00571 2.568013,3.17335 l 7.463945,0.78661 c 1.590385,0.16764 3.005707,-0.97762 3.173341,-2.56801 l 0.968362,-9.18637 c 0.167642,-1.59038 -0.977791,-3.0057 -2.568176,-3.17334 l -7.463931,-0.78677 c -0.0994,-0.0105 -0.198153,-0.0159 -0.295923,-0.0162 z m 1.71846,1.91366 c 0.03915,4.9e-4 0.07856,0.003 0.118301,0.006 l 0.574845,0.0613 c -0.04565,0.41611 -0.08859,0.83253 -0.1325,1.24883 -0.03351,0.31808 0.195579,0.60114 0.513664,0.63467 l 3.444839,0.36317 c 0.318077,0.0335 0.601148,-0.19559 0.634666,-0.51366 l 0.12102,-1.14834 0.01197,-0.10216 0.572998,0.0613 c 0.636154,0.0671 1.094382,0.63319 1.02732,1.26934 l -0.438738,4.16261 -2.165931,-0.22825 a 1.9051803,1.9051803 0 0 0 -1.689922,-1.66666 1.9051803,1.9051803 0 0 0 -1.999682,1.2776 l -2.182644,-0.23003 0.438738,-4.16258 c 0.06283,-0.5964 0.564416,-1.0363 1.151041,-1.03371 z m 2.45131,5.0058 a 1.0391892,1.0391892 0 0 1 0.05052,0.004 1.0391892,1.0391892 0 0 1 0.877236,0.71018 l -1.883851,-0.19848 a 1.0391892,1.0391892 0 0 1 0.956103,-0.51579 z m -4.131812,1.05186 2.186037,0.23027 a 1.9051803,1.9051803 0 0 0 1.687563,1.65015 1.9051803,1.9051803 0 0 0 1.994373,-1.26204 l 2.17006,0.22867 -0.438746,4.16272 c -0.0671,0.63616 -0.633179,1.09424 -1.269333,1.02718 l -0.576692,-0.0614 0.01317,-0.10045 0.121019,-1.14818 c 0.03351,-0.31808 -0.195595,-0.60116 -0.513664,-0.63467 l -3.444855,-0.36317 c -0.318077,-0.0335 -0.60114,0.19558 -0.634667,0.51365 l -0.121002,1.14834 -0.01145,0.10203 -0.57346,-0.0613 c -0.636163,-0.0671 -1.09424,-0.63319 -1.02718,-1.26934 z m 3.092508,0.32593 1.868985,0.19695 a 1.0391892,1.0391892 0 0 1 -0.997032,0.49634 1.0391892,1.0391892 0 0 1 -0.871953,-0.69329 z"
           id="path4058" />
        <path
           transform="rotate(6.0171942)"
           style="opacity:1;fill:#529643;fill-opacity:1;stroke-width:0.11546548"
           d="m 46.094097,157.92094 h 0.577327 c 0.31984,0 0.577328,0.25749 0.577328,0.57733 v 5.19595 c 0,0.31984 -0.257488,0.57732 -0.577328,0.57732 h -0.577327 c -0.31984,0 -0.577328,-0.25748 -0.577328,-0.57732 v -5.19595 c 0,-0.31984 0.257488,-0.57733 0.577328,-0.57733 z"
           id="rect4060"
           inkscape:connector-curvature="0" />
      </g>
      <g
         aria-label="NECHCI STADION"
         style="font-style:italic;font-variant:normal;font-weight:bold;font-stretch:normal;font-size:13.15694331999999989px;line-height:0.89999998;font-family:'Asap Condensed';-inkscape-font-specification:'Asap Condensed, Bold Italic';letter-spacing:-0.14137219000000001px;word-spacing:0px;opacity:1;fill:#529643;fill-opacity:1;stroke:none;stroke-width:0.15418297"
         id="text4066">
        <path
           d="m 106.4832,137.63639 q -0.65785,0 -0.61838,-0.36839 l 0.89467,-8.5257 q 0.0395,-0.3684 0.69732,-0.3684 h 0.34208 q 0.22367,0 0.35524,0.0658 0.14472,0.0658 0.22367,0.26314 l 2.07879,4.99963 q 0.14473,0.34209 0.31577,0.96046 l 0.0526,-0.0263 q -0.0263,-0.3684 -0.0263,-0.53944 0,-0.15788 0.0263,-0.44733 l 0.53943,-4.90754 q 0.0263,-0.3684 0.69732,-0.3684 h 0.26314 q 0.65785,0 0.63153,0.3684 l -0.89467,8.5257 q -0.0658,0.36839 -0.71047,0.36839 h -0.24999 q -0.23682,0 -0.38155,-0.0658 -0.13157,-0.0658 -0.21051,-0.23683 l -2.18405,-5.19699 q -0.0921,-0.21051 -0.17104,-0.47365 -0.0658,-0.26314 -0.0921,-0.35524 l -0.0658,0.0263 q 0.0263,0.3684 0.0263,0.5526 0,0.22366 -0.0132,0.34208 l -0.55259,5.03911 q -0.0263,0.36839 -0.71047,0.36839 z"
           style="font-style:italic;font-variant:normal;font-weight:bold;font-stretch:normal;line-height:0.89999998;font-family:'Asap Condensed';-inkscape-font-specification:'Asap Condensed, Bold Italic';letter-spacing:-0.14137219000000001px;fill:#529643;fill-opacity:1;stroke-width:0.15418297"
           id="path1358"
           inkscape:connector-curvature="0" />
        <path
           d="m 113.95764,137.61008 q -0.22367,0 -0.31577,-0.10526 -0.0921,-0.11841 -0.0658,-0.36839 l 0.86836,-8.26256 q 0.0263,-0.24999 0.14472,-0.35524 0.11841,-0.11841 0.34208,-0.11841 h 3.85499 q 0.28945,0 0.28945,0.40786 l -0.0132,0.15789 -0.0395,0.32892 q -0.0395,0.56575 -0.39471,0.56575 h -2.55244 l -0.23683,2.30246 h 2.27615 q 0.17104,0 0.23683,0.13157 0.0658,0.13157 0.0395,0.43418 l -0.0395,0.32892 q -0.0526,0.56575 -0.39471,0.56575 h -2.27615 l -0.26314,2.52614 h 2.55245 q 0.17104,0 0.23682,0.13157 0.0658,0.13157 0.0395,0.43417 l -0.0395,0.32893 q -0.0263,0.30261 -0.13157,0.43418 -0.0921,0.13157 -0.26314,0.13157 z"
           style="font-style:italic;font-variant:normal;font-weight:bold;font-stretch:normal;line-height:0.89999998;font-family:'Asap Condensed';-inkscape-font-specification:'Asap Condensed, Bold Italic';letter-spacing:-0.14137219000000001px;fill:#529643;fill-opacity:1;stroke-width:0.15418297"
           id="path1360"
           inkscape:connector-curvature="0" />
        <path
           d="m 122.69762,137.70218 q -3.19714,0 -3.19714,-3.61816 0,-0.43418 0.0658,-1.09203 0.24998,-2.39456 1.21044,-3.53922 0.96046,-1.14465 2.80243,-1.14465 0.73679,0 1.19728,0.1842 0.28946,0.0789 0.28946,0.40786 0,0.22367 -0.0921,0.52628 -0.0921,0.28945 -0.24999,0.47365 -0.14472,0.17104 -0.3026,0.0921 -0.44734,-0.1842 -0.93415,-0.1842 -0.92098,0 -1.44726,0.78942 -0.51312,0.77626 -0.69732,2.39456 -0.0526,0.43418 -0.0526,0.92099 0,2.27615 1.55252,2.27615 0.51312,0 1.02624,-0.21051 0.079,-0.0263 0.11842,-0.0263 0.19735,0 0.28945,0.21051 0.0921,0.21051 0.0921,0.51312 0,0.30261 -0.11842,0.49997 -0.11841,0.18419 -0.35523,0.31576 -0.4605,0.21052 -1.19728,0.21052 z"
           style="font-style:italic;font-variant:normal;font-weight:bold;font-stretch:normal;line-height:0.89999998;font-family:'Asap Condensed';-inkscape-font-specification:'Asap Condensed, Bold Italic';letter-spacing:-0.14137219000000001px;fill:#529643;fill-opacity:1;stroke-width:0.15418297"
           id="path1362"
           inkscape:connector-curvature="0" />
        <path
           d="m 125.96368,137.63639 q -0.671,0 -0.63153,-0.36839 l 0.89467,-8.5257 q 0.0395,-0.3684 0.71048,-0.3684 h 0.42102 q 0.65785,0 0.61838,0.3684 l -0.35524,3.4208 h 2.68402 l 0.35523,-3.4208 q 0.0395,-0.3684 0.71048,-0.3684 h 0.40786 q 0.67101,0 0.63154,0.3684 l -0.90783,8.5257 q -0.0263,0.36839 -0.69732,0.36839 h -0.40787 q -0.671,0 -0.63153,-0.36839 l 0.38155,-3.63132 h -2.68401 l -0.39471,3.63132 q -0.0263,0.36839 -0.68416,0.36839 z"
           style="font-style:italic;font-variant:normal;font-weight:bold;font-stretch:normal;line-height:0.89999998;font-family:'Asap Condensed';-inkscape-font-specification:'Asap Condensed, Bold Italic';letter-spacing:-0.14137219000000001px;fill:#529643;fill-opacity:1;stroke-width:0.15418297"
           id="path1364"
           inkscape:connector-curvature="0" />
        <path
           d="m 136.24227,137.70218 q -3.19714,0 -3.19714,-3.61816 0,-0.43418 0.0658,-1.09203 0.24999,-2.39456 1.21044,-3.53922 0.96046,-1.14465 2.80243,-1.14465 0.73679,0 1.19728,0.1842 0.28946,0.0789 0.28946,0.40786 0,0.22367 -0.0921,0.52628 -0.0921,0.28945 -0.24998,0.47365 -0.14473,0.17104 -0.30261,0.0921 -0.44734,-0.1842 -0.93415,-0.1842 -0.92098,0 -1.44726,0.78942 -0.51312,0.77626 -0.69732,2.39456 -0.0526,0.43418 -0.0526,0.92099 0,2.27615 1.55252,2.27615 0.51312,0 1.02625,-0.21051 0.0789,-0.0263 0.11841,-0.0263 0.19735,0 0.28945,0.21051 0.0921,0.21051 0.0921,0.51312 0,0.30261 -0.11841,0.49997 -0.11842,0.18419 -0.35524,0.31576 -0.46049,0.21052 -1.19728,0.21052 z"
           style="font-style:italic;font-variant:normal;font-weight:bold;font-stretch:normal;line-height:0.89999998;font-family:'Asap Condensed';-inkscape-font-specification:'Asap Condensed, Bold Italic';letter-spacing:-0.14137219000000001px;fill:#529643;fill-opacity:1;stroke-width:0.15418297"
           id="path1366"
           inkscape:connector-curvature="0" />
        <path
           d="m 139.49518,137.64955 q -0.67101,0 -0.63153,-0.38155 l 0.89467,-8.5257 q 0.0395,-0.38155 0.71047,-0.38155 h 0.42103 q 0.65784,0 0.61837,0.38155 l -0.90783,8.5257 q -0.0263,0.38155 -0.68416,0.38155 z"
           style="font-style:italic;font-variant:normal;font-weight:bold;font-stretch:normal;line-height:0.89999998;font-family:'Asap Condensed';-inkscape-font-specification:'Asap Condensed, Bold Italic';letter-spacing:-0.14137219000000001px;fill:#529643;fill-opacity:1;stroke-width:0.15418297"
           id="path1368"
           inkscape:connector-curvature="0" />
        <path
           d="m 145.88131,137.70218 q -1.02624,0 -1.63146,-0.34209 -0.59206,-0.24998 -0.59206,-0.59206 0,-0.32892 0.15788,-0.69732 0.17104,-0.38155 0.38155,-0.38155 0.0921,0 0.21051,0.0921 0.38155,0.22367 0.72364,0.34208 0.35523,0.10526 0.74994,0.10526 0.56575,0 0.93414,-0.28945 0.3684,-0.30261 0.3684,-0.9473 0,-0.47365 -0.30261,-0.77626 -0.28945,-0.30261 -0.92099,-0.68417 -0.81573,-0.49996 -1.22359,-1.02624 -0.40787,-0.52627 -0.40787,-1.36832 0,-0.86836 0.3684,-1.51305 0.36839,-0.64469 1.01308,-0.98677 0.64469,-0.35524 1.46042,-0.35524 0.47365,0 0.96046,0.10526 0.48681,0.0921 0.78941,0.2763 0.22367,0.11841 0.22367,0.34208 0,0.28945 -0.15788,0.671 -0.15788,0.38155 -0.35524,0.38155 -0.0658,0 -0.17104,-0.0263 -0.10525,-0.0395 -0.14472,-0.0526 -0.5526,-0.22367 -0.99993,-0.22367 -0.61838,0 -0.9473,0.31577 -0.31577,0.31577 -0.31577,0.77626 0,0.4868 0.28945,0.80257 0.30261,0.30261 0.9473,0.69732 0.82889,0.51312 1.2236,1.02624 0.40786,0.49997 0.40786,1.3157 0,1.42095 -0.81573,2.22352 -0.80257,0.78942 -2.22352,0.78942 z"
           style="font-style:italic;font-variant:normal;font-weight:bold;font-stretch:normal;line-height:0.89999998;font-family:'Asap Condensed';-inkscape-font-specification:'Asap Condensed, Bold Italic';letter-spacing:-0.14137219000000001px;fill:#529643;fill-opacity:1;stroke-width:0.15418297"
           id="path1370"
           inkscape:connector-curvature="0" />
        <path
           d="m 151.61452,137.63639 q -0.67101,0 -0.63154,-0.36839 l 0.77626,-7.40736 h -1.6183 q -0.28945,0 -0.28945,-0.40787 l 0.0131,-0.15788 0.0395,-0.32892 q 0.0526,-0.56575 0.39471,-0.56575 h 4.98648 q 0.17104,0 0.23683,0.13157 0.0789,0.13157 0.0526,0.43418 l -0.0526,0.32892 q -0.0395,0.56575 -0.39471,0.56575 h -1.6183 l -0.78942,7.40736 q -0.0263,0.36839 -0.69732,0.36839 z"
           style="font-style:italic;font-variant:normal;font-weight:bold;font-stretch:normal;line-height:0.89999998;font-family:'Asap Condensed';-inkscape-font-specification:'Asap Condensed, Bold Italic';letter-spacing:-0.14137219000000001px;fill:#529643;fill-opacity:1;stroke-width:0.15418297"
           id="path1372"
           inkscape:connector-curvature="0" />
        <path
           d="m 155.31661,137.63639 q -0.5789,0 -0.55259,-0.26314 0,-0.0526 0.0526,-0.21051 l 3.06557,-8.45991 q 0.13157,-0.32893 0.73679,-0.32893 h 0.61837 q 0.61838,0 0.67101,0.32893 l 1.32885,8.45991 q 0.0131,0.0789 0.0131,0.21051 -0.0263,0.26314 -0.56574,0.26314 h -0.49997 q -0.52628,0 -0.56575,-0.24998 l -0.23682,-1.8025 h -2.35509 l -0.60522,1.8025 q -0.0921,0.24998 -0.59207,0.24998 z m 3.93393,-3.4208 -0.38155,-3.13136 q -0.0658,-0.49996 -0.0658,-0.93414 h -0.0658 q -0.1842,0.71047 -0.26314,0.93414 l -1.06571,3.13136 z"
           style="font-style:italic;font-variant:normal;font-weight:bold;font-stretch:normal;line-height:0.89999998;font-family:'Asap Condensed';-inkscape-font-specification:'Asap Condensed, Bold Italic';letter-spacing:-0.14137219000000001px;fill:#529643;fill-opacity:1;stroke-width:0.15418297"
           id="path1374"
           inkscape:connector-curvature="0" />
        <path
           d="m 162.42287,137.61008 q -0.22367,0 -0.32893,-0.10526 -0.0921,-0.11841 -0.0658,-0.36839 l 0.88151,-8.26256 q 0.0263,-0.24999 0.14473,-0.35524 0.11841,-0.11841 0.34208,-0.11841 h 2.39456 q 1.43411,0 2.15774,0.8552 0.73679,0.84204 0.73679,2.60507 0,0.4605 -0.0658,1.14466 -0.24999,2.35509 -1.19728,3.48659 -0.9473,1.11834 -2.60508,1.11834 z m 2.49982,-1.46042 q 0.80257,0 1.27622,-0.72364 0.47365,-0.73678 0.65785,-2.42087 0.0658,-0.65785 0.0658,-1.05256 0,-1.10518 -0.34208,-1.59199 -0.32892,-0.49996 -0.99993,-0.49996 h -1.01308 l -0.67101,6.28902 z"
           style="font-style:italic;font-variant:normal;font-weight:bold;font-stretch:normal;line-height:0.89999998;font-family:'Asap Condensed';-inkscape-font-specification:'Asap Condensed, Bold Italic';letter-spacing:-0.14137219000000001px;fill:#529643;fill-opacity:1;stroke-width:0.15418297"
           id="path1376"
           inkscape:connector-curvature="0" />
        <path
           d="m 170.12529,137.64955 q -0.671,0 -0.63153,-0.38155 l 0.89467,-8.5257 q 0.0395,-0.38155 0.71048,-0.38155 h 0.42102 q 0.65785,0 0.61838,0.38155 l -0.90783,8.5257 q -0.0263,0.38155 -0.68416,0.38155 z"
           style="font-style:italic;font-variant:normal;font-weight:bold;font-stretch:normal;line-height:0.89999998;font-family:'Asap Condensed';-inkscape-font-specification:'Asap Condensed, Bold Italic';letter-spacing:-0.14137219000000001px;fill:#529643;fill-opacity:1;stroke-width:0.15418297"
           id="path1378"
           inkscape:connector-curvature="0" />
        <path
           d="m 175.83506,137.70218 q -1.38148,0 -2.17089,-0.92099 -0.77626,-0.93414 -0.77626,-2.78927 0,-0.52628 0.0526,-0.99993 0.24998,-2.42088 1.21043,-3.55237 0.96046,-1.1315 2.68402,-1.1315 1.38148,0 2.15774,0.90783 0.77626,0.90783 0.77626,2.73664 0,0.55259 -0.0526,1.0394 -0.24998,2.42088 -1.21044,3.56553 -0.96045,1.14466 -2.67086,1.14466 z m 0.17104,-1.46043 q 0.82889,0 1.28938,-0.73678 0.47365,-0.74995 0.65785,-2.51298 0.0658,-0.53943 0.0658,-1.15781 0,-1.10518 -0.32893,-1.57883 -0.32892,-0.48681 -0.99993,-0.48681 -0.84204,0 -1.31569,0.73679 -0.46049,0.72363 -0.65785,2.48666 -0.0658,0.69732 -0.0658,1.1315 0,1.13149 0.32892,1.63146 0.34208,0.4868 1.02624,0.4868 z"
           style="font-style:italic;font-variant:normal;font-weight:bold;font-stretch:normal;line-height:0.89999998;font-family:'Asap Condensed';-inkscape-font-specification:'Asap Condensed, Bold Italic';letter-spacing:-0.14137219000000001px;fill:#529643;fill-opacity:1;stroke-width:0.15418297"
           id="path1380"
           inkscape:connector-curvature="0" />
        <path
           d="m 181.09606,137.63639 q -0.65785,0 -0.61838,-0.36839 l 0.89467,-8.5257 q 0.0395,-0.3684 0.69732,-0.3684 h 0.34208 q 0.22367,0 0.35524,0.0658 0.14473,0.0658 0.22367,0.26314 l 2.0788,4.99963 q 0.14472,0.34209 0.31576,0.96046 l 0.0526,-0.0263 q -0.0263,-0.3684 -0.0263,-0.53944 0,-0.15788 0.0263,-0.44733 l 0.53943,-4.90754 q 0.0263,-0.3684 0.69732,-0.3684 h 0.26314 q 0.65785,0 0.63153,0.3684 l -0.89467,8.5257 q -0.0658,0.36839 -0.71047,0.36839 h -0.24998 q -0.23683,0 -0.38156,-0.0658 -0.13157,-0.0658 -0.21051,-0.23683 l -2.18405,-5.19699 q -0.0921,-0.21051 -0.17104,-0.47365 -0.0658,-0.26314 -0.0921,-0.35524 l -0.0658,0.0263 q 0.0263,0.3684 0.0263,0.5526 0,0.22366 -0.0132,0.34208 l -0.55259,5.03911 q -0.0263,0.36839 -0.71047,0.36839 z"
           style="font-style:italic;font-variant:normal;font-weight:bold;font-stretch:normal;line-height:0.89999998;font-family:'Asap Condensed';-inkscape-font-specification:'Asap Condensed, Bold Italic';letter-spacing:-0.14137219000000001px;fill:#529643;fill-opacity:1;stroke-width:0.15418297"
           id="path1382"
           inkscape:connector-curvature="0" />
      </g>
      <g
         aria-label="NA DLUH!"
         style="font-style:italic;font-variant:normal;font-weight:bold;font-stretch:normal;font-size:22.97155761999999868px;line-height:0.89999998;font-family:'Asap Condensed';-inkscape-font-specification:'Asap Condensed, Bold Italic';letter-spacing:-0.24683084000000000px;word-spacing:0px;opacity:1;fill:#529643;fill-opacity:1;stroke:none;stroke-width:0.269198"
         id="text4070">
        <path
           d="m 105.14438,156.00992 q -1.14858,0 -1.07966,-0.64321 l 1.56206,-14.88557 q 0.0689,-0.6432 1.21749,-0.6432 h 0.59727 q 0.39051,0 0.62023,0.11486 0.25268,0.11486 0.39051,0.45943 l 3.62951,8.72919 q 0.25269,0.59726 0.55132,1.67693 l 0.0919,-0.046 q -0.0459,-0.6432 -0.0459,-0.94183 0,-0.27566 0.0459,-0.78103 l 0.94184,-8.5684 q 0.0459,-0.6432 1.21749,-0.6432 h 0.45943 q 1.14858,0 1.10264,0.6432 l -1.56207,14.88557 q -0.11486,0.64321 -1.24046,0.64321 h -0.43646 q -0.41349,0 -0.66618,-0.11486 -0.22971,-0.11486 -0.36754,-0.41349 l -3.81328,-9.07376 q -0.1608,-0.36755 -0.29863,-0.82698 -0.11486,-0.45943 -0.1608,-0.62023 l -0.11486,0.0459 q 0.0459,0.6432 0.0459,0.96481 0,0.39051 -0.023,0.59726 l -0.96481,8.7981 q -0.0459,0.64321 -1.24046,0.64321 z"
           style="font-style:italic;font-variant:normal;font-weight:bold;font-stretch:normal;line-height:0.89999998;font-family:'Asap Condensed';-inkscape-font-specification:'Asap Condensed, Bold Italic';letter-spacing:-0.24683084000000000px;fill:#529643;fill-opacity:1;stroke-width:0.269198"
           id="path1385"
           inkscape:connector-curvature="0" />
        <path
           d="m 117.09186,156.00992 q -1.01075,0 -0.96481,-0.45943 0,-0.0919 0.0919,-0.36755 l 5.35237,-14.77071 q 0.22972,-0.57429 1.28641,-0.57429 h 1.07966 q 1.07966,0 1.17155,0.57429 l 2.32013,14.77071 q 0.023,0.13783 0.023,0.36755 -0.0459,0.45943 -0.98778,0.45943 h -0.87292 q -0.91886,0 -0.98777,-0.43646 l -0.41349,-3.14711 h -4.11191 l -1.05669,3.14711 q -0.1608,0.43646 -1.03372,0.43646 z m 6.86849,-5.97261 -0.66617,-5.46723 q -0.11486,-0.87292 -0.11486,-1.63098 h -0.11486 q -0.3216,1.24046 -0.45943,1.63098 l -1.8607,5.46723 z"
           style="font-style:italic;font-variant:normal;font-weight:bold;font-stretch:normal;line-height:0.89999998;font-family:'Asap Condensed';-inkscape-font-specification:'Asap Condensed, Bold Italic';letter-spacing:-0.24683084000000000px;fill:#529643;fill-opacity:1;stroke-width:0.269198"
           id="path1387"
           inkscape:connector-curvature="0" />
        <path
           d="m 132.8853,155.96397 q -0.39052,0 -0.57429,-0.18377 -0.1608,-0.20674 -0.11486,-0.6432 l 1.5391,-14.42614 q 0.0459,-0.43646 0.25269,-0.62023 0.20674,-0.20675 0.59726,-0.20675 h 4.18082 q 2.5039,0 3.76733,1.49315 1.28641,1.47018 1.28641,4.54837 0,0.80401 -0.11486,1.99853 -0.43646,4.11191 -2.09041,6.08746 -1.65395,1.95258 -4.54837,1.95258 z m 4.3646,-2.54984 q 1.40126,0 2.22824,-1.26343 0.82697,-1.28641 1.14858,-4.22677 0.11485,-1.14858 0.11485,-1.83773 0,-1.92961 -0.59726,-2.77955 -0.57429,-0.87292 -1.74584,-0.87292 h -1.76881 l -1.17155,10.9804 z"
           style="font-style:italic;font-variant:normal;font-weight:bold;font-stretch:normal;line-height:0.89999998;font-family:'Asap Condensed';-inkscape-font-specification:'Asap Condensed, Bold Italic';letter-spacing:-0.24683084000000000px;fill:#529643;fill-opacity:1;stroke-width:0.269198"
           id="path1389"
           inkscape:connector-curvature="0" />
        <path
           d="m 145.94295,155.96397 q -0.39052,0 -0.55132,-0.18377 -0.1608,-0.20674 -0.11485,-0.6432 l 1.53909,-14.65586 q 0.0689,-0.6432 1.24046,-0.6432 h 0.68915 q 1.17155,0 1.10264,0.6432 l -1.35533,12.93299 h 3.90517 q 0.27566,0 0.39051,0.1608 0.13783,0.1608 0.13783,0.52835 l -0.023,0.29863 -0.0689,0.57429 q -0.046,0.52834 -0.22972,0.75806 -0.1608,0.22971 -0.4824,0.22971 z"
           style="font-style:italic;font-variant:normal;font-weight:bold;font-stretch:normal;line-height:0.89999998;font-family:'Asap Condensed';-inkscape-font-specification:'Asap Condensed, Bold Italic';letter-spacing:-0.24683084000000000px;fill:#529643;fill-opacity:1;stroke-width:0.269198"
           id="path1391"
           inkscape:connector-curvature="0" />
        <path
           d="m 159.50669,156.12477 q -2.36607,0 -3.65248,-1.07966 -1.2864,-1.07966 -1.2864,-3.03224 0,-0.20675 0.0459,-0.66618 l 1.14858,-10.86555 q 0.0459,-0.6432 1.21749,-0.6432 h 0.68915 q 1.17155,0 1.1256,0.6432 l -1.14858,10.72772 q -0.11485,1.03372 0.45944,1.6999 0.59726,0.66617 1.65395,0.66617 1.05669,0 1.76881,-0.66617 0.73509,-0.66618 0.84995,-1.6999 l 1.1256,-10.72772 q 0.046,-0.6432 1.21749,-0.6432 h 0.68915 q 1.17155,0 1.10264,0.6432 l -1.14858,10.86555 q -0.22972,2.25121 -1.79178,3.51465 -1.5391,1.26343 -4.06597,1.26343 z"
           style="font-style:italic;font-variant:normal;font-weight:bold;font-stretch:normal;line-height:0.89999998;font-family:'Asap Condensed';-inkscape-font-specification:'Asap Condensed, Bold Italic';letter-spacing:-0.24683084000000000px;fill:#529643;fill-opacity:1;stroke-width:0.269198"
           id="path1393"
           inkscape:connector-curvature="0" />
        <path
           d="m 168.65487,156.00992 q -1.17155,0 -1.10263,-0.64321 l 1.56206,-14.88557 q 0.0689,-0.6432 1.24047,-0.6432 h 0.73508 q 1.14858,0 1.07967,0.6432 l -0.62023,5.97261 h 4.68619 l 0.62024,-5.97261 q 0.0689,-0.6432 1.24046,-0.6432 h 0.71212 q 1.17155,0 1.10263,0.6432 l -1.58503,14.88557 q -0.0459,0.64321 -1.2175,0.64321 h -0.71212 q -1.17154,0 -1.10263,-0.64321 l 0.66618,-6.34015 h -4.6862 l -0.68915,6.34015 q -0.0459,0.64321 -1.19452,0.64321 z"
           style="font-style:italic;font-variant:normal;font-weight:bold;font-stretch:normal;line-height:0.89999998;font-family:'Asap Condensed';-inkscape-font-specification:'Asap Condensed, Bold Italic';letter-spacing:-0.24683084000000000px;fill:#529643;fill-opacity:1;stroke-width:0.269198"
           id="path1395"
           inkscape:connector-curvature="0" />
        <path
           d="m 182.57144,151.02509 q -0.57429,0 -0.78104,-0.1608 -0.20674,-0.1608 -0.1608,-0.4824 l 1.03372,-9.90075 q 0.0689,-0.6432 1.2175,-0.6432 h 0.87292 q 1.14857,0 1.10263,0.59726 l -2.0215,9.94669 q -0.0689,0.34457 -0.29863,0.50537 -0.20674,0.13783 -0.78103,0.13783 z m -0.78104,4.98483 q -1.14857,0 -1.07966,-0.64321 l 0.20675,-1.90664 q 0.0689,-0.6432 1.24046,-0.6432 h 0.62023 q 1.17155,0 1.10264,0.6432 l -0.20675,1.90664 q -0.0689,0.64321 -1.24046,0.64321 z"
           style="font-style:italic;font-variant:normal;font-weight:bold;font-stretch:normal;line-height:0.89999998;font-family:'Asap Condensed';-inkscape-font-specification:'Asap Condensed, Bold Italic';letter-spacing:-0.24683084000000000px;fill:#529643;fill-opacity:1;stroke-width:0.269198"
           id="path1397"
           inkscape:connector-curvature="0" />
      </g>
    </g>
  </g>
</svg>
