<?xml version="1.0" encoding="UTF-8" standalone="no"?>
<!-- Created with Inkscape (http://www.inkscape.org/) -->

<svg
   xmlns:dc="http://purl.org/dc/elements/1.1/"
   xmlns:cc="http://creativecommons.org/ns#"
   xmlns:rdf="http://www.w3.org/1999/02/22-rdf-syntax-ns#"
   xmlns:svg="http://www.w3.org/2000/svg"
   xmlns="http://www.w3.org/2000/svg"
   xmlns:sodipodi="http://sodipodi.sourceforge.net/DTD/sodipodi-0.dtd"
   xmlns:inkscape="http://www.inkscape.org/namespaces/inkscape"
   width="629.11359"
   height="160.95522"
   viewBox="0 0 166.45296 42.586069"
   version="1.1"
   id="svg2179"
   sodipodi:docname="logo-colorful.v4.svg"
   inkscape:version="0.92.3 (2405546, 2018-03-11)">
  <defs
     id="defs2173" />
  <sodipodi:namedview
     id="base"
     pagecolor="#ffffff"
     bordercolor="#666666"
     borderopacity="1.0"
     inkscape:pageopacity="0.0"
     inkscape:pageshadow="2"
     inkscape:zoom="0.7"
     inkscape:cx="160.35149"
     inkscape:cy="-141.70871"
     inkscape:document-units="mm"
     inkscape:current-layer="text292"
     showgrid="false"
     units="px"
     inkscape:window-width="1680"
     inkscape:window-height="1028"
     inkscape:window-x="0"
     inkscape:window-y="0"
     inkscape:window-maximized="0" />
  <metadata
     id="metadata2176">
    <rdf:RDF>
      <cc:Work
         rdf:about="">
        <dc:format>image/svg+xml</dc:format>
        <dc:type
           rdf:resource="http://purl.org/dc/dcmitype/StillImage" />
        <dc:title></dc:title>
      </cc:Work>
    </rdf:RDF>
  </metadata>
  <g
     inkscape:label="Vrstva 1"
     inkscape:groupmode="layer"
     id="layer1"
     transform="translate(-58.871287,-98.991581)">
    <g
       style="display:inline;opacity:1;fill:#008e24;fill-opacity:1"
       transform="matrix(2.532021,0,0,2.532021,27.727126,-298.48167)"
       id="g313"
       inkscape:export-xdpi="96"
       inkscape:export-ydpi="96">
      <path
         id="path309"
         d="m 16.516151,157.56636 c -1.341997,-0.006 -2.489253,1.00052 -2.633067,2.36489 l -0.885982,8.40623 c -0.153402,1.45532 0.894604,2.75046 2.34993,2.90386 l 6.830087,0.71981 c 1.455325,0.15341 2.750454,-0.89459 2.903852,-2.34992 l 0.886126,-8.40624 c 0.153405,-1.45532 -0.894755,-2.75045 -2.35008,-2.90385 l -6.830073,-0.71996 c -0.09096,-0.01 -0.181326,-0.0145 -0.270793,-0.0148 z"
         style="opacity:1;fill:#529643;fill-opacity:1;stroke-width:0.03169298"
         inkscape:connector-curvature="0"
         sodipodi:nodetypes="ccccccccccc" />
    </g>
    <path
       style="display:inline;opacity:1;fill:#1a2026;fill-opacity:1;stroke-width:0.08769455"
       d="m 68.649881,98.991665 c -3.713311,-0.0177 -6.887999,2.768715 -7.285929,6.543905 l -2.451426,23.25996 c -0.424463,4.02688 2.475394,7.6106 6.502284,8.03506 l 18.898818,1.9916 c 4.02689,0.42446 7.61061,-2.47539 8.03507,-6.50229 l 2.45176,-23.25996 c 0.42447,-4.02687 -2.47573,-7.61059 -6.50262,-8.03506 L 69.399014,99.032945 c -0.251685,-0.0266 -0.501576,-0.0405 -0.749133,-0.0413 z m 4.350988,4.844325 v 0.001 c 0.09913,0.001 0.198821,0.008 0.299447,0.0152 l 1.455629,0.15497 11.631163,1.22182 1.45089,0.15531 c 1.61076,0.1699 2.77113,1.60334 2.60132,3.21409 l -1.11084,10.53961 -0.23008,2.18175 -1.11084,10.53995 c -0.1699,1.61077 -1.60334,2.77078 -3.21409,2.60097 l -1.46037,-0.15535 -11.625412,-1.22182 -1.452245,-0.15497 c -1.610778,-0.1699 -2.770441,-1.60335 -2.600642,-3.21409 l 1.111176,-10.5396 0.229409,-2.18244 1.111179,-10.53961 c 0.159086,-1.5101 1.428956,-2.62378 2.914306,-2.61723 z m 1.419762,3.33387 c -0.02122,0.20135 -7.94e-4,0.39716 0.05413,0.57893 -0.05501,-0.18176 -0.07535,-0.37758 -0.05413,-0.57893 z m 0.101846,0.71225 c 0.05396,0.13067 0.126365,0.25244 0.214522,0.36137 -0.08813,-0.10891 -0.160584,-0.23071 -0.214522,-0.36137 z m 0.307909,0.46592 c 0.131022,0.13345 0.287869,0.24204 0.46423,0.31772 -0.176337,-0.0757 -0.333243,-0.18429 -0.46423,-0.31772 z m 10.325772,1.24652 c -0.0871,0.036 -0.17826,0.0636 -0.27239,0.0822 0.0941,-0.0186 0.18527,-0.0463 0.27239,-0.0822 z m -6.07223,4.72014 a 4.8239564,4.8239564 0 0 0 -0.0129,7.9e-4 c 0.008,2e-5 0.0151,-4e-5 0.0227,0 a 4.8239564,4.8239564 0 0 0 -0.01,-7.9e-4 z m -0.88414,0.0816 a 4.8239564,4.8239564 0 0 0 -0.14516,0.0284 c 0.0481,-0.0103 0.0966,-0.0196 0.14516,-0.0284 z m 2.04539,0.067 c 0.005,0.001 0.0108,0.003 0.0162,0.004 a 4.8239564,4.8239564 0 0 0 -0.0162,-0.004 z m -2.50015,0.0396 a 4.8239564,4.8239564 0 0 0 -0.12858,0.0365 c 0.0424,-0.0134 0.0857,-0.0243 0.12858,-0.0365 z m -0.476073,0.16208 a 4.8239564,4.8239564 0 0 0 -0.07681,0.0291 c 0.02519,-0.0106 0.05143,-0.0189 0.07681,-0.0291 z m -0.479459,0.22162 a 4.8239564,4.8239564 0 0 0 -0.103201,0.0599 c 0.03458,-0.0196 0.06814,-0.0411 0.103201,-0.0599 z m 4.762092,0.1252 c 0.0333,0.0202 0.0653,0.0423 0.0981,0.0633 a 4.8239564,4.8239564 0 0 0 -0.0981,-0.0633 z m -5.145455,0.10523 a 4.8239564,4.8239564 0 0 0 -0.128918,0.09 c 0.04278,-0.0303 0.08518,-0.0611 0.128918,-0.09 z m 5.511565,0.14143 c 0.0422,0.0312 0.0837,0.0632 0.12485,0.0957 a 4.8239564,4.8239564 0 0 0 -0.12485,-0.0958 z m -5.876994,0.12722 a 4.8239564,4.8239564 0 0 0 -0.123164,0.10185 c 0.04037,-0.0348 0.0817,-0.0684 0.123164,-0.10185 z m 6.231934,0.16276 c 0.0376,0.0337 0.0755,0.067 0.112,0.10184 a 4.8239564,4.8239564 0 0 0 -0.112,-0.10185 z m -6.579094,0.14617 a 4.8239564,4.8239564 0 0 0 -0.103201,0.10117 c 0.03346,-0.0348 0.06875,-0.0675 0.103201,-0.10117 z m 6.934374,0.20674 c 0.0213,0.0235 0.0441,0.0457 0.065,0.0697 a 4.8239564,4.8239564 0 0 0 -0.065,-0.0697 z m -7.312662,0.20504 a 4.8239564,4.8239564 0 0 0 -0.01894,0.022 c 0.0061,-0.008 0.01286,-0.0144 0.01894,-0.022 z m 7.660162,0.22095 c 0.0118,0.0164 0.0219,0.0342 0.0335,0.0508 a 4.8239564,4.8239564 0 0 0 -0.0335,-0.0508 z m -7.954199,0.18272 a 4.8239564,4.8239564 0 0 0 -0.01151,0.0183 c 0.0039,-0.006 0.0076,-0.0123 0.01151,-0.0183 z m 3.923299,2.6e-4 c -0.0786,0.003 -0.15599,0.012 -0.23313,0.0223 a 2.6312488,2.6312488 0 0 1 0.23313,-0.0223 z m 0.26325,10e-4 v 2.6e-4 a 2.6312488,2.6312488 0 0 1 0.1279,0.0102 2.6312488,2.6312488 0 0 1 0.23516,0.0372 c -0.0774,-0.0155 -0.15564,-0.029 -0.23516,-0.0375 -0.0426,-0.004 -0.0852,-0.007 -0.1279,-0.0102 z m -0.54883,0.0284 c -0.0748,0.0116 -0.14897,0.0258 -0.22196,0.0437 a 2.6312488,2.6312488 0 0 1 0.22196,-0.0437 z m 0.97211,0.0325 a 2.6312488,2.6312488 0 0 1 0.18204,0.0477 c -0.0599,-0.018 -0.12057,-0.0339 -0.18204,-0.0477 z m -1.23366,0.022 c -0.0668,0.0174 -0.13272,0.0374 -0.1976,0.0599 a 2.6312488,2.6312488 0 0 1 0.1976,-0.0599 z m 1.46984,0.0416 a 2.6312488,2.6312488 0 0 1 0.22433,0.0839 c -0.0732,-0.0314 -0.14801,-0.0592 -0.22433,-0.0839 z m -1.70703,0.0318 c -0.0723,0.0264 -0.14298,0.0561 -0.21249,0.0887 a 2.6312488,2.6312488 0 0 1 0.21249,-0.0887 z m 5.06019,0.0403 c 0.0203,0.0347 0.0388,0.0706 0.0582,0.10591 a 4.8239564,4.8239564 0 0 0 -0.0582,-0.10591 z m -3.10852,0.0213 a 2.6312488,2.6312488 0 0 1 0.19117,0.0934 c -0.0623,-0.0336 -0.12607,-0.0648 -0.19117,-0.0934 z m -2.20307,0.0457 c -0.0715,0.0349 -0.1418,0.0722 -0.20979,0.11335 a 2.6312488,2.6312488 0 0 1 0.20979,-0.11335 z m -0.20979,0.11335 c -0.0687,0.0416 -0.13496,0.0872 -0.19963,0.135 a 2.6312488,2.6312488 0 0 1 0.19963,-0.135 z m 2.65749,-0.0362 a 2.6312488,2.6312488 0 0 1 0.19388,0.12079 c -0.0626,-0.0432 -0.12759,-0.0831 -0.19388,-0.12079 z m -5.571792,0.065 a 4.8239564,4.8239564 0 0 0 -0.01625,0.0311 c 0.0054,-0.0105 0.01085,-0.0207 0.01625,-0.0311 z m 5.772102,0.0599 a 2.6312488,2.6312488 0 0 1 0.18712,0.14414 c -0.0604,-0.0506 -0.12236,-0.0992 -0.18712,-0.14414 z m -3.08822,0.069 c -0.0614,0.0467 -0.12078,0.0961 -0.177979,0.1482 a 2.6312488,2.6312488 0 0 1 0.177979,-0.1482 z m 5.95888,0.0606 c 0.0208,0.0448 0.0408,0.0901 0.0602,0.13568 a 4.8239564,4.8239564 0 0 0 -0.0602,-0.13568 z m -2.63448,0.0575 a 2.6312488,2.6312488 0 0 1 0.13771,0.12993 c -0.0443,-0.0451 -0.0903,-0.0882 -0.13771,-0.12993 z m -3.535878,0.0623 c -0.05062,0.0478 -0.09963,0.0973 -0.146508,0.14921 a 2.6312488,2.6312488 0 0 1 0.146508,-0.14921 z m 3.707088,0.10117 a 2.6312488,2.6312488 0 0 1 0.15531,0.17933 c -0.0492,-0.0622 -0.1009,-0.12201 -0.15531,-0.17933 z m -3.874916,0.0711 c -0.05112,0.0579 -0.09935,0.11864 -0.145492,0.18136 a 2.6312488,2.6312488 0 0 1 0.145492,-0.18136 z m 4.057966,0.14515 a 2.6312488,2.6312488 0 0 1 0.11065,0.15666 c -0.035,-0.0536 -0.072,-0.10595 -0.11065,-0.15666 z m 2.48492,0.0714 c 0.001,0.004 0.003,0.008 0.004,0.0119 a 4.8239564,4.8239564 0 0 0 -0.004,-0.0119 z m -6.716127,0.004 c -0.04541,0.0641 -0.08936,0.12959 -0.129252,0.19828 a 2.6312488,2.6312488 0 0 1 2.65e-4,0 2.6312488,2.6312488 0 0 1 0.128915,-0.19828 z m 4.377717,0.13737 a 2.6312488,2.6312488 0 0 1 0.10929,0.19355 c -0.0336,-0.0665 -0.0705,-0.13065 -0.10929,-0.19355 z m 0.11606,0.20573 a 2.6312488,2.6312488 0 0 1 0.0947,0.21655 c -0.0289,-0.0738 -0.0597,-0.14644 -0.0947,-0.21655 z m 2.34958,0.1103 c 0.002,0.007 0.003,0.0149 0.005,0.0223 a 4.8239564,4.8239564 0 0 0 -0.005,-0.0223 z m -7.183408,1.92797 c 0.0016,0.005 0.0038,0.009 0.0054,0.0135 a 2.6312488,2.6312488 0 0 1 -0.0051,-0.0135 z m 0.04195,0.10795 c 0.02387,0.0602 0.04986,0.11916 0.07782,0.17697 a 2.6312488,2.6312488 0 0 1 -0.07782,-0.17697 z m -2.254837,0.10658 a 4.8239564,4.8239564 0 0 0 0.0098,0.0403 c -0.0032,-0.0135 -0.0067,-0.0268 -0.0098,-0.0403 z m 2.353976,0.11572 c 0.03571,0.0704 0.07454,0.13874 0.116057,0.20505 a 2.6312488,2.6312488 0 0 1 -0.116051,-0.20506 z m 4.591219,0.1685 a 2.6312488,2.6312488 0 0 1 -0.1306,0.19389 c 0.0459,-0.0626 0.09,-0.12661 0.1306,-0.19389 z m -4.451474,0.0724 c 0.03605,0.0555 0.0741,0.10935 0.114025,0.16174 a 2.6312488,2.6312488 0 0 1 -0.114025,-0.16174 z m -2.373603,0.0697 a 4.8239564,4.8239564 0 0 0 0.05109,0.14381 c -0.01733,-0.0478 -0.03522,-0.0953 -0.05109,-0.14381 z m 9.120527,0.0998 c -0.0203,0.0576 -0.042,0.11416 -0.0643,0.17053 a 4.8239564,4.8239564 0 0 0 0.0643,-0.17053 z m -2.46801,0.007 a 2.6312488,2.6312488 0 0 1 -0.11944,0.14313 c 0.0413,-0.0462 0.0813,-0.0938 0.11944,-0.14313 z m -4.128344,0.0325 c 0.04887,0.0612 0.09969,0.12059 0.153614,0.17696 a 2.6312488,2.6312488 0 0 1 -0.153609,-0.17669 z m 3.975404,0.14854 a 2.6312488,2.6312488 0 0 1 -0.1658,0.164 c 0.0576,-0.0519 0.1127,-0.10661 0.1658,-0.16377 z m -3.805209,0.0447 c 0.04905,0.0504 0.100434,0.0982 0.153279,0.14448 a 2.6312488,2.6312488 0 0 1 -0.153276,-0.14448 z m -2.52925,0.0971 a 4.8239564,4.8239564 0 0 0 0.06057,0.13399 c -0.02098,-0.0442 -0.0409,-0.089 -0.06057,-0.13399 z m 6.128059,0.0565 a 2.6312488,2.6312488 0 0 1 -0.14753,0.11843 c 0.0505,-0.0377 0.0997,-0.0771 0.14753,-0.11843 z m -3.39444,0.0345 c 0.054,0.0449 0.10937,0.0878 0.16681,0.12824 a 2.6312488,2.6312488 0 0 1 -0.16681,-0.12824 z m 3.19853,0.11978 a 2.6312488,2.6312488 0 0 1 -0.19591,0.12757 c 0.0673,-0.0394 0.13221,-0.0823 0.19591,-0.12757 z m -3.01311,0.0223 c 0.0638,0.0441 0.13033,0.0845 0.19794,0.12283 a 2.6312488,2.6312488 0 0 1 -0.19794,-0.12283 z m 5.77955,0.0332 c -0.002,0.005 -0.005,0.01 -0.007,0.0142 a 4.8239564,4.8239564 0 0 0 0.007,-0.0142 z m -2.98299,0.0832 a 2.6312488,2.6312488 0 0 1 -0.19084,0.0988 c 0.0649,-0.0305 0.12862,-0.0631 0.19084,-0.0988 z m -2.54414,0.0362 c 0.0568,0.0305 0.11453,0.059 0.17358,0.0853 a 2.6312488,2.6312488 0 0 1 -0.17358,-0.0853 z m -2.962689,0.0338 a 4.8239564,4.8239564 0 0 0 0.06395,0.11471 c -0.02236,-0.0375 -0.04259,-0.0765 -0.06395,-0.11471 z m 5.262189,0.0531 a 2.6312488,2.6312488 0 0 1 -0.19557,0.0778 c 0.0663,-0.0232 0.13146,-0.0495 0.19557,-0.0778 z m -2.08396,0.0173 c 0.0718,0.0305 0.14517,0.0578 0.21993,0.0819 a 2.6312488,2.6312488 0 0 1 -0.21993,-0.0819 z m 1.86132,0.0707 a 2.6312488,2.6312488 0 0 1 -0.22264,0.0633 c 0.0752,-0.0182 0.1496,-0.0386 0.22264,-0.0633 z m -1.59199,0.0257 c 0.0605,0.0182 0.12167,0.0342 0.18373,0.0481 a 2.6312488,2.6312488 0 0 1 -0.18373,-0.0481 z m 4.84161,0.0281 c -0.0206,0.0331 -0.0399,0.067 -0.0612,0.0995 a 4.8239564,4.8239564 0 0 0 0.0612,-0.0995 z m -3.53486,0.0233 a 2.6312488,2.6312488 0 0 1 -0.1844,0.0332 c 0.062,-0.009 0.12347,-0.02 0.1844,-0.0332 z m -1.06042,0.0102 c 0.0767,0.0152 0.15403,0.0285 0.23279,0.0369 0.005,5.3e-4 0.0104,5.3e-4 0.0156,0.001 a 2.6312488,2.6312488 0 0 1 -0.0152,-0.001 2.6312488,2.6312488 0 0 1 -0.23313,-0.0365 z m 0.82289,0.0308 a 2.6312488,2.6312488 0 0 1 -0.23414,0.0179 c 0.0786,-0.002 0.15672,-0.008 0.23414,-0.0179 z m -0.47404,0.0139 c 0.0663,0.004 0.1322,0.005 0.19794,0.004 a 2.6312488,2.6312488 0 0 1 -0.19794,-0.004 z m -3.760548,0.17527 a 4.8239564,4.8239564 0 0 0 0.02843,0.0423 c -0.01,-0.0137 -0.01855,-0.0285 -0.02843,-0.0423 z m 0.306218,0.38708 a 4.8239564,4.8239564 0 0 0 0.09406,0.10016 c -0.03125,-0.0335 -0.06376,-0.0658 -0.09406,-0.10016 z m 7.07378,0.1658 c -0.0271,0.028 -0.0561,0.0539 -0.0839,0.0812 a 4.8239564,4.8239564 0 0 0 0.0839,-0.0812 z m -6.760119,0.157 a 4.8239564,4.8239564 0 0 0 0.117751,0.10591 c -0.03959,-0.0349 -0.07933,-0.0697 -0.117751,-0.10591 z m 6.435629,0.14685 c -0.0404,0.0346 -0.0817,0.0679 -0.12316,0.10117 a 4.8239564,4.8239564 0 0 0 0.12316,-0.10117 z m -6.091856,0.14651 a 4.8239564,4.8239564 0 0 0 0.126548,0.0964 c -0.0429,-0.0312 -0.08473,-0.0638 -0.126548,-0.0964 z m 5.734886,0.13095 c -0.0432,0.0305 -0.0861,0.0612 -0.13027,0.0903 a 4.8239564,4.8239564 0 0 0 0.13027,-0.0903 z m -5.337309,0.14786 a 4.8239564,4.8239564 0 0 0 0.09948,0.0633 c -0.03384,-0.0201 -0.06619,-0.0423 -0.09948,-0.0633 z m 4.928229,0.11166 c -0.0345,0.0195 -0.0679,0.0409 -0.10286,0.0596 a 4.8239564,4.8239564 0 0 0 0.10286,-0.0596 z m -4.431853,0.16478 a 4.8239564,4.8239564 0 0 0 0.03654,0.0156 c -0.01196,-0.006 -0.02463,-0.01 -0.03654,-0.0156 z m 3.923973,0.0887 c -0.0144,0.006 -0.0295,0.0103 -0.044,0.0162 a 4.8239564,4.8239564 0 0 0 0.044,-0.0162 z m -3.51117,0.0826 a 4.8239564,4.8239564 0 0 0 0.13703,0.0453 c -0.0457,-0.0152 -0.092,-0.0289 -0.13703,-0.0453 z m 3.0916,0.0694 c -0.0439,0.0138 -0.0886,0.025 -0.13297,0.0375 a 4.8239564,4.8239564 0 0 0 0.13297,-0.0375 z m -2.60639,0.0805 a 4.8239564,4.8239564 0 0 0 0.0213,0.006 c -0.007,-0.002 -0.0142,-0.004 -0.0213,-0.006 z m 2.1672,0.0338 c -0.0487,0.0104 -0.0977,0.0198 -0.14685,0.0288 a 4.8239564,4.8239564 0 0 0 0.14685,-0.0288 z m -1.69079,0.0602 a 4.8239564,4.8239564 0 0 0 0.18271,0.0237 c -0.0613,-0.007 -0.12212,-0.0149 -0.18271,-0.0237 z m 1.24144,0.0132 c -0.0513,0.006 -0.10258,0.0126 -0.15428,0.0169 a 4.8239564,4.8239564 0 0 0 0.15428,-0.0169 z m -0.5928,0.0355 a 4.8239564,4.8239564 0 0 0 0.0365,0 c -0.0122,0 -0.0243,9e-5 -0.0365,0 z m -5.686838,4.65416 c -0.01,0.001 -0.01953,0.003 -0.02944,0.004 0.01077,-0.001 0.0213,-0.003 0.03214,-0.004 -7.94e-4,9e-5 -0.0019,-9e-5 -0.0027,0 z m 0.296741,0.002 8.722607,0.91966 c 0.0435,0.005 0.0862,0.0118 0.12825,0.0199 -0.0422,-0.008 -0.0847,-0.0157 -0.12825,-0.0203 z m -0.431747,0.0179 c -0.01598,0.003 -0.03155,0.008 -0.04737,0.0112 0.01585,-0.004 0.03137,-0.008 0.04737,-0.0112 z m -0.137713,0.0338 c -0.01339,0.004 -0.02635,0.009 -0.03959,0.0132 0.01326,-0.004 0.02617,-0.009 0.03959,-0.0132 z m -0.132636,0.0463 c -0.01201,0.005 -0.02365,0.0104 -0.03553,0.0156 0.01185,-0.005 0.02355,-0.0107 0.03553,-0.0156 z m -0.123502,0.0568 c -0.014,0.007 -0.02753,0.0153 -0.04128,0.023 0.01376,-0.008 0.02727,-0.0157 0.04128,-0.023 z m -0.116059,0.0673 c -0.01596,0.0102 -0.03149,0.021 -0.04704,0.0318 0.0155,-0.0108 0.03111,-0.0216 0.04704,-0.0318 z m -0.108276,0.0768 c -0.01675,0.013 -0.03325,0.0262 -0.0494,0.0399 0.01617,-0.0137 0.03264,-0.0269 0.0494,-0.0399 z m -0.102523,0.0876 c -0.01561,0.0146 -0.03104,0.0294 -0.04602,0.0447 0.01498,-0.0153 0.03041,-0.03 0.04602,-0.0447 z m -0.09474,0.0974 c -0.01413,0.016 -0.02819,0.0318 -0.04162,0.0484 0.01339,-0.0165 0.02754,-0.0325 0.04162,-0.0484 z m -0.0873,0.10896 c -0.01212,0.0167 -0.02442,0.0332 -0.03587,0.0504 0.01143,-0.0172 0.02376,-0.0338 0.03587,-0.0504 z m -0.07444,0.11301 c -0.01095,0.0185 -0.02196,0.0368 -0.03214,0.0558 0.01019,-0.019 0.02117,-0.0373 0.03214,-0.0558 z m -0.06395,0.1208 c -0.0096,0.0203 -0.01971,0.0404 -0.02842,0.0612 0.0087,-0.0209 0.01881,-0.0409 0.02842,-0.0612 z m -0.05245,0.1262 c -0.0082,0.0226 -0.01725,0.0448 -0.02437,0.068 0.0071,-0.0232 0.01617,-0.0454 0.02437,-0.068 z m -0.04128,0.13332 c -0.0062,0.024 -0.01328,0.0475 -0.01828,0.0721 0.005,-0.0245 0.01209,-0.0481 0.01828,-0.0721 z"
       id="path280"
       inkscape:connector-curvature="0"
       inkscape:export-xdpi="96"
       inkscape:export-ydpi="96" />
    <path
       transform="rotate(6.0171942)"
       style="display:inline;opacity:1;fill:#1a2026;fill-opacity:1;stroke-width:0.29236102"
       d="m 111.4781,102.18417 h 1.46181 c 0.80984,0 1.4618,0.65197 1.4618,1.46181 v 13.15624 c 0,0.80984 -0.65196,1.46181 -1.4618,1.46181 h -1.46181 c -0.80984,0 -1.4618,-0.65197 -1.4618,-1.46181 v -13.15624 c 0,-0.80984 0.65196,-1.46181 1.4618,-1.46181 z"
       id="rect282"
       inkscape:connector-curvature="0" />
    <g
       aria-label="NECHCI STADION"
       style="font-style:italic;font-variant:normal;font-weight:bold;font-stretch:normal;font-size:18.97581482000000008px;line-height:0.89999998;font-family:'Asap Condensed';-inkscape-font-specification:'Asap Condensed, Bold Italic';letter-spacing:-0.20389631000000000px;word-spacing:0px;display:inline;opacity:1;fill:#1a2026;fill-opacity:1;stroke:none;stroke-width:0.22237286"
       id="text288">
      <path
         d="m 108.29331,114.76376 q -1.11957,0 -1.02469,-0.60723 L 108.54,102.01201 q 0.0569,-0.60722 1.15752,-0.60722 h 0.49338 q 0.36054,0 0.56927,0.11385 0.22771,0.0949 0.36054,0.41747 l 2.71354,6.37587 q 0.26566,0.6262 0.49337,1.48012 l 0.0759,-0.038 q -0.038,-0.60722 -0.038,-0.91084 0,-0.20873 0.038,-0.58825 l 0.7021,-6.24304 q 0.0569,-0.60722 1.15753,-0.60722 h 0.45542 q 1.10059,0 1.04367,0.60722 l -1.27138,12.14452 q -0.0949,0.60723 -1.1765,0.60723 h -0.36055 q -0.37951,0 -0.60722,-0.11386 -0.22771,-0.11385 -0.36054,-0.41746 l -2.88433,-6.64154 q -0.13283,-0.28464 -0.24668,-0.66415 -0.0949,-0.39849 -0.13283,-0.5503 l -0.11386,0.0569 q 0.019,0.1518 0.0379,0.36054 0.019,0.18975 0.019,0.45542 0,0.17078 -0.0379,0.47439 l -0.70211,6.4328 q -0.0569,0.60723 -1.1765,0.60723 z"
         style="font-style:italic;font-variant:normal;font-weight:bold;font-stretch:normal;line-height:0.89999998;font-family:'Asap Condensed';-inkscape-font-specification:'Asap Condensed, Bold Italic';letter-spacing:-0.20389631000000000px;fill:#1a2026;fill-opacity:1;stroke-width:0.22237286"
         id="path1926"
         inkscape:connector-curvature="0" />
      <path
         d="m 118.99755,114.72581 q -0.37952,0 -0.53133,-0.17079 -0.13283,-0.18975 -0.0949,-0.58825 l 1.25241,-11.765 q 0.0379,-0.39849 0.22771,-0.56928 0.18976,-0.18975 0.5503,-0.18975 h 5.59786 q 0.4744,0 0.4744,0.68313 l -0.019,0.26566 -0.0569,0.58825 q -0.0759,0.94879 -0.66415,0.94879 h -3.33974 l -0.28464,2.75149 h 2.96023 q 0.47439,0 0.47439,0.68313 l -0.019,0.26566 -0.0569,0.58825 q -0.0759,0.94879 -0.66415,0.94879 h -2.96023 l -0.32259,3.07409 h 3.35872 q 0.24668,0 0.34156,0.17078 0.11386,0.1518 0.11386,0.49337 l -0.019,0.28464 -0.0569,0.58825 q -0.0759,0.94879 -0.64518,0.94879 z"
         style="font-style:italic;font-variant:normal;font-weight:bold;font-stretch:normal;line-height:0.89999998;font-family:'Asap Condensed';-inkscape-font-specification:'Asap Condensed, Bold Italic';letter-spacing:-0.20389631000000000px;fill:#1a2026;fill-opacity:1;stroke-width:0.22237286"
         id="path1928"
         inkscape:connector-curvature="0" />
      <path
         d="m 131.70232,114.87761 q -4.74395,0 -4.74395,-5.3322 0,-0.79698 0.0759,-1.49909 0.36054,-3.41565 1.78373,-5.08552 1.44216,-1.66987 4.0798,-1.66987 0.87289,0 1.63192,0.20873 0.51235,0.15181 0.51235,0.68313 0,0.13283 -0.019,0.20874 -0.0949,0.72108 -0.41747,1.2524 -0.30361,0.53132 -0.64518,0.39849 -0.60722,-0.18975 -1.19547,-0.18975 -1.13855,0 -1.82168,1.04367 -0.66415,1.04366 -0.89186,3.16896 -0.0569,0.64517 -0.0569,1.19547 0,3.03613 1.97348,3.03613 0.36054,0 0.66416,-0.0569 0.30361,-0.0569 0.60722,-0.15181 0.0569,-0.019 0.17079,-0.019 0.30361,0 0.45542,0.30362 0.1518,0.30361 0.1518,0.81596 0,1.02469 -0.75903,1.42318 -0.5503,0.26566 -1.55602,0.26566 z"
         style="font-style:italic;font-variant:normal;font-weight:bold;font-stretch:normal;line-height:0.89999998;font-family:'Asap Condensed';-inkscape-font-specification:'Asap Condensed, Bold Italic';letter-spacing:-0.20389631000000000px;fill:#1a2026;fill-opacity:1;stroke-width:0.22237286"
         id="path1930"
         inkscape:connector-curvature="0" />
      <path
         d="m 136.31798,114.76376 q -1.10059,0 -1.04366,-0.60723 l 1.29035,-12.14452 q 0.0569,-0.60722 1.15753,-0.60722 h 0.79698 q 1.08162,0 1.02469,0.60722 l -0.49337,4.68703 h 3.24487 l 0.49337,-4.68703 q 0.0569,-0.60722 1.15752,-0.60722 h 0.77801 q 1.1006,0 1.04367,0.60722 l -1.29035,12.14452 q -0.0569,0.60723 -1.15753,0.60723 h -0.77801 q -1.1006,0 -1.04367,-0.60723 l 0.53133,-4.95268 h -3.24487 l -0.53132,4.95268 q -0.0569,0.60723 -1.13855,0.60723 z"
         style="font-style:italic;font-variant:normal;font-weight:bold;font-stretch:normal;line-height:0.89999998;font-family:'Asap Condensed';-inkscape-font-specification:'Asap Condensed, Bold Italic';letter-spacing:-0.20389631000000000px;fill:#1a2026;fill-opacity:1;stroke-width:0.22237286"
         id="path1932"
         inkscape:connector-curvature="0" />
      <path
         d="m 151.23732,114.87761 q -4.74396,0 -4.74396,-5.3322 0,-0.79698 0.0759,-1.49909 0.36054,-3.41565 1.78372,-5.08552 1.44216,-1.66987 4.0798,-1.66987 0.87289,0 1.63192,0.20873 0.51235,0.15181 0.51235,0.68313 0,0.13283 -0.019,0.20874 -0.0949,0.72108 -0.41746,1.2524 -0.30362,0.53132 -0.64518,0.39849 -0.60723,-0.18975 -1.19548,-0.18975 -1.13855,0 -1.82168,1.04367 -0.66415,1.04366 -0.89186,3.16896 -0.0569,0.64517 -0.0569,1.19547 0,3.03613 1.97349,3.03613 0.36054,0 0.66415,-0.0569 0.30361,-0.0569 0.60723,-0.15181 0.0569,-0.019 0.17078,-0.019 0.30361,0 0.45542,0.30362 0.15181,0.30361 0.15181,0.81596 0,1.02469 -0.75904,1.42318 -0.5503,0.26566 -1.55601,0.26566 z"
         style="font-style:italic;font-variant:normal;font-weight:bold;font-stretch:normal;line-height:0.89999998;font-family:'Asap Condensed';-inkscape-font-specification:'Asap Condensed, Bold Italic';letter-spacing:-0.20389631000000000px;fill:#1a2026;fill-opacity:1;stroke-width:0.22237286"
         id="path1934"
         inkscape:connector-curvature="0" />
      <path
         d="m 155.7581,114.78273 q -1.1006,0 -1.04367,-0.6262 l 1.29035,-12.14452 q 0.0569,-0.6262 1.15753,-0.6262 h 0.79698 q 1.08162,0 1.0247,0.6262 l -1.29036,12.14452 q -0.0569,0.6262 -1.13855,0.6262 z"
         style="font-style:italic;font-variant:normal;font-weight:bold;font-stretch:normal;line-height:0.89999998;font-family:'Asap Condensed';-inkscape-font-specification:'Asap Condensed, Bold Italic';letter-spacing:-0.20389631000000000px;fill:#1a2026;fill-opacity:1;stroke-width:0.22237286"
         id="path1936"
         inkscape:connector-curvature="0" />
      <path
         d="m 164.9686,114.87761 q -1.02469,0 -1.89758,-0.30361 -0.51235,-0.18976 -0.89186,-0.47439 -0.36054,-0.28464 -0.36054,-0.62621 -0.019,-0.5503 0.28463,-1.19547 0.30362,-0.64518 0.68313,-0.64518 0.13283,0 0.36054,0.13283 0.62621,0.34156 1.00572,0.49337 0.39849,0.13283 0.91084,0.13283 0.6262,0 1.08162,-0.36054 0.45542,-0.37951 0.45542,-1.19547 0,-0.56928 -0.36054,-0.91084 -0.36054,-0.36054 -1.13855,-0.85392 -0.0949,-0.0759 -0.18975,-0.11385 -0.0759,-0.0569 -0.13284,-0.0949 -1.08162,-0.68313 -1.57499,-1.38523 -0.47439,-0.70211 -0.47439,-1.89759 0,-1.30933 0.55029,-2.27709 0.56928,-0.98675 1.53705,-1.49909 0.96776,-0.51235 2.16324,-0.51235 0.60722,0 1.2524,0.15181 0.66416,0.13283 1.08162,0.37951 0.45542,0.26566 0.45542,0.66416 0,0.51234 -0.24668,1.11957 -0.24669,0.58825 -0.60723,0.58825 -0.17078,0 -0.56927,-0.13283 -0.72108,-0.26566 -1.19548,-0.26566 -0.89186,0 -1.1765,0.41747 -0.28464,0.41746 -0.28464,0.87288 0,0.60723 0.34157,0.98675 0.34156,0.36054 0.77801,0.64517 0.43644,0.26566 0.56927,0.36054 1.15753,0.74006 1.66987,1.44217 0.51235,0.68313 0.51235,1.84065 0,2.14427 -1.23343,3.33974 -1.21445,1.1765 -3.35872,1.1765 z"
         style="font-style:italic;font-variant:normal;font-weight:bold;font-stretch:normal;line-height:0.89999998;font-family:'Asap Condensed';-inkscape-font-specification:'Asap Condensed, Bold Italic';letter-spacing:-0.20389631000000000px;fill:#1a2026;fill-opacity:1;stroke-width:0.22237286"
         id="path1938"
         inkscape:connector-curvature="0" />
      <path
         d="m 173.23741,114.76376 q -1.1006,0 -1.04367,-0.60723 l 1.08162,-10.22796 h -2.10632 q -0.47439,0 -0.47439,-0.68313 l 0.019,-0.26566 0.0759,-0.58825 q 0.0759,-0.94879 0.64517,-0.94879 h 7.21081 q 0.26567,0 0.37952,0.17078 0.11386,0.15181 0.11386,0.51235 l -0.019,0.26566 -0.0759,0.58825 q -0.038,0.49337 -0.20874,0.72108 -0.1518,0.22771 -0.45542,0.22771 h -2.12529 l -1.08162,10.22796 q -0.0569,0.60723 -1.15752,0.60723 z"
         style="font-style:italic;font-variant:normal;font-weight:bold;font-stretch:normal;line-height:0.89999998;font-family:'Asap Condensed';-inkscape-font-specification:'Asap Condensed, Bold Italic';letter-spacing:-0.20389631000000000px;fill:#1a2026;fill-opacity:1;stroke-width:0.22237286"
         id="path1940"
         inkscape:connector-curvature="0" />
      <path
         d="m 178.6717,114.76376 q -0.91084,0 -0.87289,-0.41747 0.0379,-0.22771 0.0949,-0.34156 l 4.25058,-12.06862 q 0.18976,-0.53132 1.21445,-0.53132 h 1.06265 q 1.04367,0 1.11957,0.53132 l 1.76475,12.06862 q 0.019,0.0569 0.019,0.18975 0,0.0949 -0.019,0.15181 -0.0379,0.41747 -0.85391,0.41747 h -0.92981 q -0.89187,0 -0.96777,-0.39849 l -0.24669,-2.31505 h -2.96022 l -0.75904,2.31505 q -0.0949,0.39849 -0.92981,0.39849 z m 5.48401,-5.02859 -0.3985,-4.02287 q -0.0759,-0.9488 -0.0759,-1.44217 h -0.0949 q -0.24668,1.0247 -0.37951,1.44217 l -1.29036,4.02287 z"
         style="font-style:italic;font-variant:normal;font-weight:bold;font-stretch:normal;line-height:0.89999998;font-family:'Asap Condensed';-inkscape-font-specification:'Asap Condensed, Bold Italic';letter-spacing:-0.20389631000000000px;fill:#1a2026;fill-opacity:1;stroke-width:0.22237286"
         id="path1942"
         inkscape:connector-curvature="0" />
      <path
         d="m 188.80696,114.72581 q -0.37952,0 -0.53133,-0.17079 -0.13283,-0.18975 -0.0949,-0.58825 l 1.25241,-11.765 q 0.038,-0.39849 0.22771,-0.56928 0.18976,-0.18975 0.5503,-0.18975 h 3.6054 q 2.14427,0 3.16896,1.2524 1.0247,1.23343 1.0247,3.73824 0,0.66415 -0.0949,1.65089 -0.34157,3.33975 -1.68885,4.99064 -1.32831,1.6509 -3.81414,1.6509 z m 3.77618,-2.48583 q 1.00572,0 1.53704,-0.92982 0.53133,-0.94879 0.77801,-3.22589 0.0949,-0.81596 0.0949,-1.66987 0,-1.32831 -0.37952,-1.89758 -0.36054,-0.58825 -1.15752,-0.58825 h -1.21445 l -0.87289,8.31141 z"
         style="font-style:italic;font-variant:normal;font-weight:bold;font-stretch:normal;line-height:0.89999998;font-family:'Asap Condensed';-inkscape-font-specification:'Asap Condensed, Bold Italic';letter-spacing:-0.20389631000000000px;fill:#1a2026;fill-opacity:1;stroke-width:0.22237286"
         id="path1944"
         inkscape:connector-curvature="0" />
      <path
         d="m 199.93488,114.78273 q -1.1006,0 -1.04367,-0.6262 l 1.29035,-12.14452 q 0.0569,-0.6262 1.15753,-0.6262 h 0.79698 q 1.08162,0 1.0247,0.6262 l -1.29036,12.14452 q -0.0569,0.6262 -1.13855,0.6262 z"
         style="font-style:italic;font-variant:normal;font-weight:bold;font-stretch:normal;line-height:0.89999998;font-family:'Asap Condensed';-inkscape-font-specification:'Asap Condensed, Bold Italic';letter-spacing:-0.20389631000000000px;fill:#1a2026;fill-opacity:1;stroke-width:0.22237286"
         id="path1946"
         inkscape:connector-curvature="0" />
      <path
         d="m 208.26476,114.87761 q -2.01144,0 -3.16896,-1.30933 -1.15753,-1.3283 -1.15753,-4.02287 0,-0.77801 0.0759,-1.46114 0.36054,-3.5295 1.74577,-5.16142 1.40421,-1.63192 3.94697,-1.63192 2.03041,0 3.16896,1.30933 1.13855,1.30933 1.13855,3.98492 0,0.79699 -0.0759,1.49909 -0.36054,3.5295 -1.74578,5.16142 -1.38523,1.63192 -3.92799,1.63192 z m 0.28464,-2.48583 q 0.68313,0 1.13855,-0.37951 0.45542,-0.37952 0.75903,-1.30934 0.32259,-0.94879 0.49337,-2.61866 0.11386,-1.02469 0.11386,-1.76475 0,-1.38523 -0.3985,-1.95451 -0.37951,-0.56927 -1.19547,-0.56927 -0.68313,0 -1.15753,0.37951 -0.45542,0.37952 -0.77801,1.32831 -0.32259,0.92982 -0.49337,2.58071 -0.11385,0.98674 -0.11385,1.7268 0,1.42319 0.39849,2.01144 0.41747,0.56927 1.23343,0.56927 z"
         style="font-style:italic;font-variant:normal;font-weight:bold;font-stretch:normal;line-height:0.89999998;font-family:'Asap Condensed';-inkscape-font-specification:'Asap Condensed, Bold Italic';letter-spacing:-0.20389631000000000px;fill:#1a2026;fill-opacity:1;stroke-width:0.22237286"
         id="path1948"
         inkscape:connector-curvature="0" />
      <path
         d="m 215.85252,114.76376 q -1.11958,0 -1.0247,-0.60723 l 1.27138,-12.14452 q 0.0569,-0.60722 1.15753,-0.60722 h 0.49337 q 0.36054,0 0.56927,0.11385 0.22771,0.0949 0.36054,0.41747 l 2.71355,6.37587 q 0.26566,0.6262 0.49337,1.48012 l 0.0759,-0.038 q -0.0379,-0.60722 -0.0379,-0.91084 0,-0.20873 0.0379,-0.58825 l 0.70211,-6.24304 q 0.0569,-0.60722 1.15752,-0.60722 h 0.45542 q 1.1006,0 1.04367,0.60722 l -1.27138,12.14452 q -0.0949,0.60723 -1.1765,0.60723 h -0.36054 q -0.37952,0 -0.60723,-0.11386 -0.22771,-0.11385 -0.36054,-0.41746 l -2.88432,-6.64154 q -0.13283,-0.28464 -0.24669,-0.66415 -0.0949,-0.39849 -0.13283,-0.5503 l -0.11385,0.0569 q 0.019,0.1518 0.0379,0.36054 0.019,0.18975 0.019,0.45542 0,0.17078 -0.0379,0.47439 l -0.7021,6.4328 q -0.0569,0.60723 -1.1765,0.60723 z"
         style="font-style:italic;font-variant:normal;font-weight:bold;font-stretch:normal;line-height:0.89999998;font-family:'Asap Condensed';-inkscape-font-specification:'Asap Condensed, Bold Italic';letter-spacing:-0.20389631000000000px;fill:#1a2026;fill-opacity:1;stroke-width:0.22237286"
         id="path1950"
         inkscape:connector-curvature="0" />
    </g>
    <g
       aria-label="NA DLUH!"
       style="font-style:italic;font-variant:normal;font-weight:bold;font-stretch:normal;font-size:33.30379868px;line-height:0.89999998;font-family:'Asap Condensed';-inkscape-font-specification:'Asap Condensed, Bold Italic';letter-spacing:-0.35785139px;word-spacing:0px;display:inline;opacity:1;fill:#0f1926;fill-opacity:1;stroke:none;stroke-width:0.39027894"
       id="text292">
      <path
         d="m 106.37293,141.37783 q -1.96493,0 -1.79841,-1.06573 l 2.23135,-21.31443 q 0.0999,-1.06572 2.03154,-1.06572 h 0.86589 q 0.63278,0 0.99912,0.19982 0.39964,0.16652 0.63277,0.73269 l 4.76244,11.19007 q 0.46626,1.09903 0.8659,2.5977 l 0.13322,-0.0666 q -0.0666,-1.06572 -0.0666,-1.59858 0,-0.36634 0.0666,-1.03242 l 1.23224,-10.95695 q 0.0999,-1.06572 2.03153,-1.06572 h 0.79929 q 1.93162,0 1.83171,1.06572 l -2.23135,21.31443 q -0.16652,1.06573 -2.06484,1.06573 h -0.63277 q -0.66608,0 -1.06572,-0.19983 -0.39965,-0.19982 -0.63278,-0.73268 L 111.30189,128.789 q -0.23313,-0.49956 -0.43295,-1.16563 -0.16652,-0.69938 -0.23313,-0.96581 l -0.19982,0.0999 q 0.0333,0.26643 0.0666,0.63277 0.0333,0.33304 0.0333,0.79929 0,0.29974 -0.0666,0.8326 l -1.23224,11.28998 q -0.0999,1.06573 -2.06483,1.06573 z"
         style="fill:#1a2026;fill-opacity:1;stroke-width:0.39027894"
         id="path1953"
         inkscape:connector-curvature="0" />
      <path
         d="m 123.69419,141.37783 q -1.59859,0 -1.53198,-0.73269 0.0666,-0.39964 0.16652,-0.59947 l 7.46005,-21.18121 q 0.33304,-0.93251 2.13145,-0.93251 h 1.86501 q 1.83171,0 1.96492,0.93251 l 3.09726,21.18121 q 0.0333,0.0999 0.0333,0.33304 0,0.16652 -0.0333,0.26643 -0.0666,0.73269 -1.49868,0.73269 h -1.63188 q -1.56528,0 -1.6985,-0.69938 l -0.43294,-4.06307 h -5.1954 l -1.33215,4.06307 q -0.16652,0.69938 -1.63189,0.69938 z m 9.62479,-8.82551 -0.69937,-7.06041 q -0.13322,-1.66519 -0.13322,-2.53108 h -0.16652 q -0.43295,1.7984 -0.66607,2.53108 l -2.26466,7.06041 z"
         style="fill:#1a2026;fill-opacity:1;stroke-width:0.39027894"
         id="path1955"
         inkscape:connector-curvature="0" />
      <path
         d="m 146.39145,141.31122 q -0.66608,0 -0.93251,-0.29974 -0.23312,-0.33303 -0.16652,-1.03241 l 2.19806,-20.64836 q 0.0666,-0.69938 0.39964,-0.99911 0.33304,-0.33304 0.96581,-0.33304 h 6.32772 q 3.76333,0 5.56174,2.19805 1.7984,2.16475 1.7984,6.56085 0,1.16563 -0.16652,2.89743 -0.59947,5.86147 -2.96403,8.7589 -2.33127,2.89743 -6.69407,2.89743 z m 6.62746,-4.3628 q 1.7651,0 2.6976,-1.63189 0.93251,-1.66519 1.36546,-5.66164 0.16652,-1.43206 0.16652,-2.93074 0,-2.33126 -0.66608,-3.33038 -0.63277,-1.03241 -2.03153,-1.03241 h -2.13144 l -1.53198,14.58706 z"
         style="fill:#ed3b38;fill-opacity:1;stroke-width:0.39027894"
         id="path1957"
         inkscape:connector-curvature="0" />
      <path
         d="m 165.38883,141.31122 q -0.66608,0 -0.93251,-0.29974 -0.23312,-0.33303 -0.16652,-1.03241 l 2.23136,-20.9814 q 0.0999,-1.06572 2.03153,-1.06572 h 1.33215 q 1.93162,0 1.83171,1.06572 l -1.89832,17.95075 h 4.96227 q 0.46625,0 0.66608,0.29973 0.19982,0.26644 0.19982,0.89921 l -0.0333,0.46625 -0.13322,1.03242 q -0.0666,0.8659 -0.36634,1.26554 -0.26643,0.39965 -0.79929,0.39965 z"
         style="fill:#ed3b38;fill-opacity:1;stroke-width:0.39027894"
         id="path1959"
         inkscape:connector-curvature="0" />
      <path
         d="m 184.93633,141.57765 q -3.4969,0 -5.42852,-1.59858 -1.93162,-1.59859 -1.93162,-4.52932 0,-0.29973 0.0666,-0.96581 l 1.63188,-15.48627 q 0.0999,-1.06572 2.03154,-1.06572 h 1.33215 q 1.93162,0 1.83171,1.06572 l -1.59859,15.15323 q -0.13321,1.36546 0.53287,2.23136 0.66607,0.83259 1.96492,0.83259 1.29885,0 2.16475,-0.8659 0.86589,-0.8659 0.99911,-2.19805 l 1.59858,-15.15323 q 0.0999,-1.06572 2.03153,-1.06572 h 1.29885 q 1.93162,0 1.83171,1.06572 l -1.63189,15.48627 q -0.33303,3.36368 -2.6643,5.2287 -2.29796,1.86501 -6.06129,1.86501 z"
         style="fill:#ed3b38;fill-opacity:1;stroke-width:0.39027894"
         id="path1961"
         inkscape:connector-curvature="0" />
      <path
         d="m 198.1659,141.37783 q -1.93162,0 -1.83171,-1.06573 l 2.26466,-21.31443 q 0.0999,-1.06572 2.03153,-1.06572 h 1.39876 q 1.89832,0 1.79841,1.06572 l -0.8659,8.22604 h 5.69495 l 0.8659,-8.22604 q 0.0999,-1.06572 2.03153,-1.06572 h 1.36546 q 1.93162,0 1.8317,1.06572 l -2.26465,21.31443 q -0.0999,1.06573 -2.03154,1.06573 h -1.36545 q -1.93162,0 -1.83171,-1.06573 l 0.93251,-8.69229 h -5.69495 l -0.93251,8.69229 q -0.0999,1.06573 -1.99823,1.06573 z"
         style="fill:#ed3b38;fill-opacity:1;stroke-width:0.39027894"
         id="path1963"
         inkscape:connector-curvature="0" />
      <path
         d="m 218.37523,133.91777 q -1.03242,0 -1.36545,-0.23312 -0.33304,-0.26643 -0.26643,-0.8326 l 1.46536,-13.85438 q 0.0999,-1.06572 2.03153,-1.06572 h 1.53198 q 0.8992,0 1.36545,0.26643 0.49956,0.23313 0.46626,0.66608 -1.03242,4.66253 -3.16386,13.98759 -0.13322,0.59947 -0.46626,0.8326 -0.33303,0.23312 -1.33215,0.23312 z m -1.26554,7.46006 q -1.96493,0 -1.79841,-1.06573 l 0.29974,-3.06395 q 0.0666,-0.53286 0.56616,-0.79929 0.49956,-0.26643 1.49867,-0.26643 h 1.09903 q 1.96492,0 1.7984,1.06572 l -0.29973,3.06395 q -0.0666,0.53287 -0.56617,0.7993 -0.49955,0.26643 -1.49867,0.26643 z"
         style="font-style:italic;font-variant:normal;font-weight:bold;font-stretch:normal;line-height:0.89999998;font-family:'Asap Condensed';-inkscape-font-specification:'Asap Condensed, Bold Italic';letter-spacing:-0.35785138999999999px;fill:#1a2026;fill-opacity:1;stroke-width:0.39027894"
         id="path1965"
         inkscape:connector-curvature="0" />
    </g>
    <path
       style="display:inline;opacity:1;fill:#ffffff;stroke:none;stroke-width:0.08024729"
       d="m 74.75608,104.0074 c -0.115588,1.05359 -0.224133,2.10825 -0.335314,3.16233 -0.08485,0.80538 0.494924,1.52197 1.300321,1.60687 l 8.722611,0.91966 c 0.80538,0.0848 1.52201,-0.4953 1.60688,-1.30066 l 0.30655,-2.90754 0.0301,-0.25885 z m -6.00997,15.16772 5.534911,0.58332 c 0.286285,2.21356 2.053725,3.94168 4.273167,4.17809 2.21976,0.23118 4.3083,-1.09047 5.0497,-3.19549 l 5.49465,0.57894 0.23008,-2.18175 -5.48416,-0.57792 c -0.2688,-2.23185 -2.04356,-3.98218 -4.27891,-4.22005 -2.23527,-0.23269 -4.335101,1.10896 -5.063237,3.23509 l -5.526792,-0.58267 z m 10.198548,-2.66461 c 0.0877,-0.004 0.17557,-0.003 0.26324,0.001 0.0427,0.003 0.0853,0.006 0.1279,0.0102 1.02973,0.11016 1.89908,0.81408 2.22101,1.79839 l -4.769884,-0.50281 c 0.449879,-0.77457 1.262894,-1.26706 2.157734,-1.30709 z m -2.368533,3.48986 4.732323,0.49875 c -0.52696,0.87265 -1.51056,1.36242 -2.52451,1.25702 -1.01398,-0.10801 -1.87426,-0.79215 -2.207813,-1.75577 z m -3.096003,8.60858 c -0.742651,-0.003 -1.377397,0.5541 -1.456984,1.30912 l -0.306554,2.90754 -0.02876,0.25817 11.625414,1.22183 0.0335,-0.25445 0.30655,-2.9072 c 0.0848,-0.80538 -0.4953,-1.52202 -1.30066,-1.60687 l -8.722611,-0.91967 c -0.05034,-0.005 -0.100385,-0.008 -0.149894,-0.008 z m -5.378252,3.02698 c 0.103172,0.15596 0.221245,0.30169 0.352235,0.43514 -0.13099,-0.13345 -0.249063,-0.27918 -0.352235,-0.43514 z m 1.023882,0.94539 c 0.332582,0.18344 0.707131,0.30501 1.109824,0.34749 -0.402693,-0.0425 -0.777242,-0.16405 -1.109824,-0.34749 z"
       id="path337"
       inkscape:connector-curvature="0"
       sodipodi:nodetypes="ccccccccccccccccccccccccccccccccccccccccccaca"
       inkscape:export-xdpi="96"
       inkscape:export-ydpi="96" />
    <g
       aria-label="NA DLUH!"
       style="font-style:italic;font-variant:normal;font-weight:bold;font-stretch:normal;font-size:33.30379868px;line-height:0.89999998;font-family:'Asap Condensed';-inkscape-font-specification:'Asap Condensed, Bold Italic';letter-spacing:-0.35785139px;word-spacing:0px;display:inline;opacity:1;fill:#0f1926;fill-opacity:1;stroke:none;stroke-width:0.39027894"
       id="text2599" />
  </g>
</svg>
