<?xml version="1.0" encoding="UTF-8" standalone="no"?>
<!-- Created with Inkscape (http://www.inkscape.org/) -->

<svg
   xmlns:dc="http://purl.org/dc/elements/1.1/"
   xmlns:cc="http://creativecommons.org/ns#"
   xmlns:rdf="http://www.w3.org/1999/02/22-rdf-syntax-ns#"
   xmlns:svg="http://www.w3.org/2000/svg"
   xmlns="http://www.w3.org/2000/svg"
   xmlns:sodipodi="http://sodipodi.sourceforge.net/DTD/sodipodi-0.dtd"
   xmlns:inkscape="http://www.inkscape.org/namespaces/inkscape"
   width="628.60645"
   height="160.82935"
   viewBox="0 0 166.31878 42.552766"
   version="1.1"
   id="svg2179"
   sodipodi:docname="logo-colorful.svg"
   inkscape:version="0.92.3 (2405546, 2018-03-11)">
  <defs
     id="defs2173" />
  <sodipodi:namedview
     id="base"
     pagecolor="#ffffff"
     bordercolor="#666666"
     borderopacity="1.0"
     inkscape:pageopacity="0.0"
     inkscape:pageshadow="2"
     inkscape:zoom="0.35"
     inkscape:cx="-296.79137"
     inkscape:cy="-27.548888"
     inkscape:document-units="mm"
     inkscape:current-layer="layer1"
     showgrid="false"
     units="px"
     inkscape:window-width="1680"
     inkscape:window-height="1028"
     inkscape:window-x="0"
     inkscape:window-y="0"
     inkscape:window-maximized="0" />
  <metadata
     id="metadata2176">
    <rdf:RDF>
      <cc:Work
         rdf:about="">
        <dc:format>image/svg+xml</dc:format>
        <dc:type
           rdf:resource="http://purl.org/dc/dcmitype/StillImage" />
        <dc:title></dc:title>
      </cc:Work>
    </rdf:RDF>
  </metadata>
  <g
     inkscape:label="Vrstva 1"
     inkscape:groupmode="layer"
     id="layer1"
     transform="translate(-58.871287,-98.991581)">
    <g
       style="display:inline;opacity:1;fill:#008e24;fill-opacity:1"
       transform="matrix(2.532021,0,0,2.532021,27.727126,-298.48167)"
       id="g313"
       inkscape:export-xdpi="96"
       inkscape:export-ydpi="96">
      <path
         id="path309"
         d="m 16.516151,157.56636 c -1.341997,-0.006 -2.489253,1.00052 -2.633067,2.36489 l -0.885982,8.40623 c -0.153402,1.45532 0.894604,2.75046 2.34993,2.90386 l 6.830087,0.71981 c 1.455325,0.15341 2.750454,-0.89459 2.903852,-2.34992 l 0.886126,-8.40624 c 0.153405,-1.45532 -0.894755,-2.75045 -2.35008,-2.90385 l -6.830073,-0.71996 c -0.09096,-0.01 -0.181326,-0.0145 -0.270793,-0.0148 z"
         style="opacity:1;fill:#008e24;fill-opacity:1;stroke-width:0.03169298"
         inkscape:connector-curvature="0"
         sodipodi:nodetypes="ccccccccccc" />
    </g>
    <path
       style="display:inline;opacity:1;fill:#0f1926;fill-opacity:1;stroke-width:0.08769455"
       d="m 68.649881,98.991665 c -3.713311,-0.0177 -6.887999,2.768715 -7.285929,6.543905 l -2.451426,23.25996 c -0.424463,4.02688 2.475394,7.6106 6.502284,8.03506 l 18.898818,1.9916 c 4.02689,0.42446 7.61061,-2.47539 8.03507,-6.50229 l 2.45176,-23.25996 c 0.42447,-4.02687 -2.47573,-7.61059 -6.50262,-8.03506 L 69.399014,99.032945 c -0.251685,-0.0266 -0.501576,-0.0405 -0.749133,-0.0413 z m 4.350988,4.844325 v 0.001 c 0.09913,0.001 0.198821,0.008 0.299447,0.0152 l 1.455629,0.15497 11.631163,1.22182 1.45089,0.15531 c 1.61076,0.1699 2.77113,1.60334 2.60132,3.21409 l -1.11084,10.53961 -0.23008,2.18175 -1.11084,10.53995 c -0.1699,1.61077 -1.60334,2.77078 -3.21409,2.60097 l -1.46037,-0.15535 -11.625412,-1.22182 -1.452245,-0.15497 c -1.610778,-0.1699 -2.770441,-1.60335 -2.600642,-3.21409 l 1.111176,-10.5396 0.229409,-2.18244 1.111179,-10.53961 c 0.159086,-1.5101 1.428956,-2.62378 2.914306,-2.61723 z m 1.419762,3.33387 c -0.02122,0.20135 -7.94e-4,0.39716 0.05413,0.57893 -0.05501,-0.18176 -0.07535,-0.37758 -0.05413,-0.57893 z m 0.101846,0.71225 c 0.05396,0.13067 0.126365,0.25244 0.214522,0.36137 -0.08813,-0.10891 -0.160584,-0.23071 -0.214522,-0.36137 z m 0.307909,0.46592 c 0.131022,0.13345 0.287869,0.24204 0.46423,0.31772 -0.176337,-0.0757 -0.333243,-0.18429 -0.46423,-0.31772 z m 10.325772,1.24652 c -0.0871,0.036 -0.17826,0.0636 -0.27239,0.0822 0.0941,-0.0186 0.18527,-0.0463 0.27239,-0.0822 z m -6.07223,4.72014 a 4.8239564,4.8239564 0 0 0 -0.0129,7.9e-4 c 0.008,2e-5 0.0151,-4e-5 0.0227,0 a 4.8239564,4.8239564 0 0 0 -0.01,-7.9e-4 z m -0.88414,0.0816 a 4.8239564,4.8239564 0 0 0 -0.14516,0.0284 c 0.0481,-0.0103 0.0966,-0.0196 0.14516,-0.0284 z m 2.04539,0.067 c 0.005,0.001 0.0108,0.003 0.0162,0.004 a 4.8239564,4.8239564 0 0 0 -0.0162,-0.004 z m -2.50015,0.0396 a 4.8239564,4.8239564 0 0 0 -0.12858,0.0365 c 0.0424,-0.0134 0.0857,-0.0243 0.12858,-0.0365 z m -0.476073,0.16208 a 4.8239564,4.8239564 0 0 0 -0.07681,0.0291 c 0.02519,-0.0106 0.05143,-0.0189 0.07681,-0.0291 z m -0.479459,0.22162 a 4.8239564,4.8239564 0 0 0 -0.103201,0.0599 c 0.03458,-0.0196 0.06814,-0.0411 0.103201,-0.0599 z m 4.762092,0.1252 c 0.0333,0.0202 0.0653,0.0423 0.0981,0.0633 a 4.8239564,4.8239564 0 0 0 -0.0981,-0.0633 z m -5.145455,0.10523 a 4.8239564,4.8239564 0 0 0 -0.128918,0.09 c 0.04278,-0.0303 0.08518,-0.0611 0.128918,-0.09 z m 5.511565,0.14143 c 0.0422,0.0312 0.0837,0.0632 0.12485,0.0957 a 4.8239564,4.8239564 0 0 0 -0.12485,-0.0958 z m -5.876994,0.12722 a 4.8239564,4.8239564 0 0 0 -0.123164,0.10185 c 0.04037,-0.0348 0.0817,-0.0684 0.123164,-0.10185 z m 6.231934,0.16276 c 0.0376,0.0337 0.0755,0.067 0.112,0.10184 a 4.8239564,4.8239564 0 0 0 -0.112,-0.10185 z m -6.579094,0.14617 a 4.8239564,4.8239564 0 0 0 -0.103201,0.10117 c 0.03346,-0.0348 0.06875,-0.0675 0.103201,-0.10117 z m 6.934374,0.20674 c 0.0213,0.0235 0.0441,0.0457 0.065,0.0697 a 4.8239564,4.8239564 0 0 0 -0.065,-0.0697 z m -7.312662,0.20504 a 4.8239564,4.8239564 0 0 0 -0.01894,0.022 c 0.0061,-0.008 0.01286,-0.0144 0.01894,-0.022 z m 7.660162,0.22095 c 0.0118,0.0164 0.0219,0.0342 0.0335,0.0508 a 4.8239564,4.8239564 0 0 0 -0.0335,-0.0508 z m -7.954199,0.18272 a 4.8239564,4.8239564 0 0 0 -0.01151,0.0183 c 0.0039,-0.006 0.0076,-0.0123 0.01151,-0.0183 z m 3.923299,2.6e-4 c -0.0786,0.003 -0.15599,0.012 -0.23313,0.0223 a 2.6312488,2.6312488 0 0 1 0.23313,-0.0223 z m 0.26325,10e-4 v 2.6e-4 a 2.6312488,2.6312488 0 0 1 0.1279,0.0102 2.6312488,2.6312488 0 0 1 0.23516,0.0372 c -0.0774,-0.0155 -0.15564,-0.029 -0.23516,-0.0375 -0.0426,-0.004 -0.0852,-0.007 -0.1279,-0.0102 z m -0.54883,0.0284 c -0.0748,0.0116 -0.14897,0.0258 -0.22196,0.0437 a 2.6312488,2.6312488 0 0 1 0.22196,-0.0437 z m 0.97211,0.0325 a 2.6312488,2.6312488 0 0 1 0.18204,0.0477 c -0.0599,-0.018 -0.12057,-0.0339 -0.18204,-0.0477 z m -1.23366,0.022 c -0.0668,0.0174 -0.13272,0.0374 -0.1976,0.0599 a 2.6312488,2.6312488 0 0 1 0.1976,-0.0599 z m 1.46984,0.0416 a 2.6312488,2.6312488 0 0 1 0.22433,0.0839 c -0.0732,-0.0314 -0.14801,-0.0592 -0.22433,-0.0839 z m -1.70703,0.0318 c -0.0723,0.0264 -0.14298,0.0561 -0.21249,0.0887 a 2.6312488,2.6312488 0 0 1 0.21249,-0.0887 z m 5.06019,0.0403 c 0.0203,0.0347 0.0388,0.0706 0.0582,0.10591 a 4.8239564,4.8239564 0 0 0 -0.0582,-0.10591 z m -3.10852,0.0213 a 2.6312488,2.6312488 0 0 1 0.19117,0.0934 c -0.0623,-0.0336 -0.12607,-0.0648 -0.19117,-0.0934 z m -2.20307,0.0457 c -0.0715,0.0349 -0.1418,0.0722 -0.20979,0.11335 a 2.6312488,2.6312488 0 0 1 0.20979,-0.11335 z m -0.20979,0.11335 c -0.0687,0.0416 -0.13496,0.0872 -0.19963,0.135 a 2.6312488,2.6312488 0 0 1 0.19963,-0.135 z m 2.65749,-0.0362 a 2.6312488,2.6312488 0 0 1 0.19388,0.12079 c -0.0626,-0.0432 -0.12759,-0.0831 -0.19388,-0.12079 z m -5.571792,0.065 a 4.8239564,4.8239564 0 0 0 -0.01625,0.0311 c 0.0054,-0.0105 0.01085,-0.0207 0.01625,-0.0311 z m 5.772102,0.0599 a 2.6312488,2.6312488 0 0 1 0.18712,0.14414 c -0.0604,-0.0506 -0.12236,-0.0992 -0.18712,-0.14414 z m -3.08822,0.069 c -0.0614,0.0467 -0.12078,0.0961 -0.177979,0.1482 a 2.6312488,2.6312488 0 0 1 0.177979,-0.1482 z m 5.95888,0.0606 c 0.0208,0.0448 0.0408,0.0901 0.0602,0.13568 a 4.8239564,4.8239564 0 0 0 -0.0602,-0.13568 z m -2.63448,0.0575 a 2.6312488,2.6312488 0 0 1 0.13771,0.12993 c -0.0443,-0.0451 -0.0903,-0.0882 -0.13771,-0.12993 z m -3.535878,0.0623 c -0.05062,0.0478 -0.09963,0.0973 -0.146508,0.14921 a 2.6312488,2.6312488 0 0 1 0.146508,-0.14921 z m 3.707088,0.10117 a 2.6312488,2.6312488 0 0 1 0.15531,0.17933 c -0.0492,-0.0622 -0.1009,-0.12201 -0.15531,-0.17933 z m -3.874916,0.0711 c -0.05112,0.0579 -0.09935,0.11864 -0.145492,0.18136 a 2.6312488,2.6312488 0 0 1 0.145492,-0.18136 z m 4.057966,0.14515 a 2.6312488,2.6312488 0 0 1 0.11065,0.15666 c -0.035,-0.0536 -0.072,-0.10595 -0.11065,-0.15666 z m 2.48492,0.0714 c 0.001,0.004 0.003,0.008 0.004,0.0119 a 4.8239564,4.8239564 0 0 0 -0.004,-0.0119 z m -6.716127,0.004 c -0.04541,0.0641 -0.08936,0.12959 -0.129252,0.19828 a 2.6312488,2.6312488 0 0 1 2.65e-4,0 2.6312488,2.6312488 0 0 1 0.128915,-0.19828 z m 4.377717,0.13737 a 2.6312488,2.6312488 0 0 1 0.10929,0.19355 c -0.0336,-0.0665 -0.0705,-0.13065 -0.10929,-0.19355 z m 0.11606,0.20573 a 2.6312488,2.6312488 0 0 1 0.0947,0.21655 c -0.0289,-0.0738 -0.0597,-0.14644 -0.0947,-0.21655 z m 2.34958,0.1103 c 0.002,0.007 0.003,0.0149 0.005,0.0223 a 4.8239564,4.8239564 0 0 0 -0.005,-0.0223 z m -7.183408,1.92797 c 0.0016,0.005 0.0038,0.009 0.0054,0.0135 a 2.6312488,2.6312488 0 0 1 -0.0051,-0.0135 z m 0.04195,0.10795 c 0.02387,0.0602 0.04986,0.11916 0.07782,0.17697 a 2.6312488,2.6312488 0 0 1 -0.07782,-0.17697 z m -2.254837,0.10658 a 4.8239564,4.8239564 0 0 0 0.0098,0.0403 c -0.0032,-0.0135 -0.0067,-0.0268 -0.0098,-0.0403 z m 2.353976,0.11572 c 0.03571,0.0704 0.07454,0.13874 0.116057,0.20505 a 2.6312488,2.6312488 0 0 1 -0.116051,-0.20506 z m 4.591219,0.1685 a 2.6312488,2.6312488 0 0 1 -0.1306,0.19389 c 0.0459,-0.0626 0.09,-0.12661 0.1306,-0.19389 z m -4.451474,0.0724 c 0.03605,0.0555 0.0741,0.10935 0.114025,0.16174 a 2.6312488,2.6312488 0 0 1 -0.114025,-0.16174 z m -2.373603,0.0697 a 4.8239564,4.8239564 0 0 0 0.05109,0.14381 c -0.01733,-0.0478 -0.03522,-0.0953 -0.05109,-0.14381 z m 9.120527,0.0998 c -0.0203,0.0576 -0.042,0.11416 -0.0643,0.17053 a 4.8239564,4.8239564 0 0 0 0.0643,-0.17053 z m -2.46801,0.007 a 2.6312488,2.6312488 0 0 1 -0.11944,0.14313 c 0.0413,-0.0462 0.0813,-0.0938 0.11944,-0.14313 z m -4.128344,0.0325 c 0.04887,0.0612 0.09969,0.12059 0.153614,0.17696 a 2.6312488,2.6312488 0 0 1 -0.153609,-0.17669 z m 3.975404,0.14854 a 2.6312488,2.6312488 0 0 1 -0.1658,0.164 c 0.0576,-0.0519 0.1127,-0.10661 0.1658,-0.16377 z m -3.805209,0.0447 c 0.04905,0.0504 0.100434,0.0982 0.153279,0.14448 a 2.6312488,2.6312488 0 0 1 -0.153276,-0.14448 z m -2.52925,0.0971 a 4.8239564,4.8239564 0 0 0 0.06057,0.13399 c -0.02098,-0.0442 -0.0409,-0.089 -0.06057,-0.13399 z m 6.128059,0.0565 a 2.6312488,2.6312488 0 0 1 -0.14753,0.11843 c 0.0505,-0.0377 0.0997,-0.0771 0.14753,-0.11843 z m -3.39444,0.0345 c 0.054,0.0449 0.10937,0.0878 0.16681,0.12824 a 2.6312488,2.6312488 0 0 1 -0.16681,-0.12824 z m 3.19853,0.11978 a 2.6312488,2.6312488 0 0 1 -0.19591,0.12757 c 0.0673,-0.0394 0.13221,-0.0823 0.19591,-0.12757 z m -3.01311,0.0223 c 0.0638,0.0441 0.13033,0.0845 0.19794,0.12283 a 2.6312488,2.6312488 0 0 1 -0.19794,-0.12283 z m 5.77955,0.0332 c -0.002,0.005 -0.005,0.01 -0.007,0.0142 a 4.8239564,4.8239564 0 0 0 0.007,-0.0142 z m -2.98299,0.0832 a 2.6312488,2.6312488 0 0 1 -0.19084,0.0988 c 0.0649,-0.0305 0.12862,-0.0631 0.19084,-0.0988 z m -2.54414,0.0362 c 0.0568,0.0305 0.11453,0.059 0.17358,0.0853 a 2.6312488,2.6312488 0 0 1 -0.17358,-0.0853 z m -2.962689,0.0338 a 4.8239564,4.8239564 0 0 0 0.06395,0.11471 c -0.02236,-0.0375 -0.04259,-0.0765 -0.06395,-0.11471 z m 5.262189,0.0531 a 2.6312488,2.6312488 0 0 1 -0.19557,0.0778 c 0.0663,-0.0232 0.13146,-0.0495 0.19557,-0.0778 z m -2.08396,0.0173 c 0.0718,0.0305 0.14517,0.0578 0.21993,0.0819 a 2.6312488,2.6312488 0 0 1 -0.21993,-0.0819 z m 1.86132,0.0707 a 2.6312488,2.6312488 0 0 1 -0.22264,0.0633 c 0.0752,-0.0182 0.1496,-0.0386 0.22264,-0.0633 z m -1.59199,0.0257 c 0.0605,0.0182 0.12167,0.0342 0.18373,0.0481 a 2.6312488,2.6312488 0 0 1 -0.18373,-0.0481 z m 4.84161,0.0281 c -0.0206,0.0331 -0.0399,0.067 -0.0612,0.0995 a 4.8239564,4.8239564 0 0 0 0.0612,-0.0995 z m -3.53486,0.0233 a 2.6312488,2.6312488 0 0 1 -0.1844,0.0332 c 0.062,-0.009 0.12347,-0.02 0.1844,-0.0332 z m -1.06042,0.0102 c 0.0767,0.0152 0.15403,0.0285 0.23279,0.0369 0.005,5.3e-4 0.0104,5.3e-4 0.0156,0.001 a 2.6312488,2.6312488 0 0 1 -0.0152,-0.001 2.6312488,2.6312488 0 0 1 -0.23313,-0.0365 z m 0.82289,0.0308 a 2.6312488,2.6312488 0 0 1 -0.23414,0.0179 c 0.0786,-0.002 0.15672,-0.008 0.23414,-0.0179 z m -0.47404,0.0139 c 0.0663,0.004 0.1322,0.005 0.19794,0.004 a 2.6312488,2.6312488 0 0 1 -0.19794,-0.004 z m -3.760548,0.17527 a 4.8239564,4.8239564 0 0 0 0.02843,0.0423 c -0.01,-0.0137 -0.01855,-0.0285 -0.02843,-0.0423 z m 0.306218,0.38708 a 4.8239564,4.8239564 0 0 0 0.09406,0.10016 c -0.03125,-0.0335 -0.06376,-0.0658 -0.09406,-0.10016 z m 7.07378,0.1658 c -0.0271,0.028 -0.0561,0.0539 -0.0839,0.0812 a 4.8239564,4.8239564 0 0 0 0.0839,-0.0812 z m -6.760119,0.157 a 4.8239564,4.8239564 0 0 0 0.117751,0.10591 c -0.03959,-0.0349 -0.07933,-0.0697 -0.117751,-0.10591 z m 6.435629,0.14685 c -0.0404,0.0346 -0.0817,0.0679 -0.12316,0.10117 a 4.8239564,4.8239564 0 0 0 0.12316,-0.10117 z m -6.091856,0.14651 a 4.8239564,4.8239564 0 0 0 0.126548,0.0964 c -0.0429,-0.0312 -0.08473,-0.0638 -0.126548,-0.0964 z m 5.734886,0.13095 c -0.0432,0.0305 -0.0861,0.0612 -0.13027,0.0903 a 4.8239564,4.8239564 0 0 0 0.13027,-0.0903 z m -5.337309,0.14786 a 4.8239564,4.8239564 0 0 0 0.09948,0.0633 c -0.03384,-0.0201 -0.06619,-0.0423 -0.09948,-0.0633 z m 4.928229,0.11166 c -0.0345,0.0195 -0.0679,0.0409 -0.10286,0.0596 a 4.8239564,4.8239564 0 0 0 0.10286,-0.0596 z m -4.431853,0.16478 a 4.8239564,4.8239564 0 0 0 0.03654,0.0156 c -0.01196,-0.006 -0.02463,-0.01 -0.03654,-0.0156 z m 3.923973,0.0887 c -0.0144,0.006 -0.0295,0.0103 -0.044,0.0162 a 4.8239564,4.8239564 0 0 0 0.044,-0.0162 z m -3.51117,0.0826 a 4.8239564,4.8239564 0 0 0 0.13703,0.0453 c -0.0457,-0.0152 -0.092,-0.0289 -0.13703,-0.0453 z m 3.0916,0.0694 c -0.0439,0.0138 -0.0886,0.025 -0.13297,0.0375 a 4.8239564,4.8239564 0 0 0 0.13297,-0.0375 z m -2.60639,0.0805 a 4.8239564,4.8239564 0 0 0 0.0213,0.006 c -0.007,-0.002 -0.0142,-0.004 -0.0213,-0.006 z m 2.1672,0.0338 c -0.0487,0.0104 -0.0977,0.0198 -0.14685,0.0288 a 4.8239564,4.8239564 0 0 0 0.14685,-0.0288 z m -1.69079,0.0602 a 4.8239564,4.8239564 0 0 0 0.18271,0.0237 c -0.0613,-0.007 -0.12212,-0.0149 -0.18271,-0.0237 z m 1.24144,0.0132 c -0.0513,0.006 -0.10258,0.0126 -0.15428,0.0169 a 4.8239564,4.8239564 0 0 0 0.15428,-0.0169 z m -0.5928,0.0355 a 4.8239564,4.8239564 0 0 0 0.0365,0 c -0.0122,0 -0.0243,9e-5 -0.0365,0 z m -5.686838,4.65416 c -0.01,0.001 -0.01953,0.003 -0.02944,0.004 0.01077,-0.001 0.0213,-0.003 0.03214,-0.004 -7.94e-4,9e-5 -0.0019,-9e-5 -0.0027,0 z m 0.296741,0.002 8.722607,0.91966 c 0.0435,0.005 0.0862,0.0118 0.12825,0.0199 -0.0422,-0.008 -0.0847,-0.0157 -0.12825,-0.0203 z m -0.431747,0.0179 c -0.01598,0.003 -0.03155,0.008 -0.04737,0.0112 0.01585,-0.004 0.03137,-0.008 0.04737,-0.0112 z m -0.137713,0.0338 c -0.01339,0.004 -0.02635,0.009 -0.03959,0.0132 0.01326,-0.004 0.02617,-0.009 0.03959,-0.0132 z m -0.132636,0.0463 c -0.01201,0.005 -0.02365,0.0104 -0.03553,0.0156 0.01185,-0.005 0.02355,-0.0107 0.03553,-0.0156 z m -0.123502,0.0568 c -0.014,0.007 -0.02753,0.0153 -0.04128,0.023 0.01376,-0.008 0.02727,-0.0157 0.04128,-0.023 z m -0.116059,0.0673 c -0.01596,0.0102 -0.03149,0.021 -0.04704,0.0318 0.0155,-0.0108 0.03111,-0.0216 0.04704,-0.0318 z m -0.108276,0.0768 c -0.01675,0.013 -0.03325,0.0262 -0.0494,0.0399 0.01617,-0.0137 0.03264,-0.0269 0.0494,-0.0399 z m -0.102523,0.0876 c -0.01561,0.0146 -0.03104,0.0294 -0.04602,0.0447 0.01498,-0.0153 0.03041,-0.03 0.04602,-0.0447 z m -0.09474,0.0974 c -0.01413,0.016 -0.02819,0.0318 -0.04162,0.0484 0.01339,-0.0165 0.02754,-0.0325 0.04162,-0.0484 z m -0.0873,0.10896 c -0.01212,0.0167 -0.02442,0.0332 -0.03587,0.0504 0.01143,-0.0172 0.02376,-0.0338 0.03587,-0.0504 z m -0.07444,0.11301 c -0.01095,0.0185 -0.02196,0.0368 -0.03214,0.0558 0.01019,-0.019 0.02117,-0.0373 0.03214,-0.0558 z m -0.06395,0.1208 c -0.0096,0.0203 -0.01971,0.0404 -0.02842,0.0612 0.0087,-0.0209 0.01881,-0.0409 0.02842,-0.0612 z m -0.05245,0.1262 c -0.0082,0.0226 -0.01725,0.0448 -0.02437,0.068 0.0071,-0.0232 0.01617,-0.0454 0.02437,-0.068 z m -0.04128,0.13332 c -0.0062,0.024 -0.01328,0.0475 -0.01828,0.0721 0.005,-0.0245 0.01209,-0.0481 0.01828,-0.0721 z"
       id="path280"
       inkscape:connector-curvature="0"
       inkscape:export-xdpi="96"
       inkscape:export-ydpi="96" />
    <rect
       transform="rotate(6.0171942)"
       rx="1.4618047"
       y="102.18417"
       x="110.0163"
       height="16.079855"
       width="4.3854146"
       id="rect282"
       style="display:inline;opacity:1;fill:#0f1926;fill-opacity:1;stroke-width:0.29236102"
       inkscape:export-xdpi="96"
       inkscape:export-ydpi="96" />
    <text
       xml:space="preserve"
       style="font-style:italic;font-variant:normal;font-weight:bold;font-stretch:normal;font-size:18.97581482px;line-height:0.89999998;font-family:'Asap Condensed';-inkscape-font-specification:'Asap Condensed, Bold Italic';letter-spacing:-0.20389631px;word-spacing:0px;display:inline;opacity:1;fill:#0f1926;fill-opacity:1;stroke:none;stroke-width:0.22237286"
       x="106.7373"
       y="114.72581"
       id="text288"
       inkscape:export-xdpi="96"
       inkscape:export-ydpi="96"><tspan
         dx="0 0 -0.052403636 0 -0.18195471 0 0 0.40672231"
         id="tspan286"
         sodipodi:role="line"
         x="106.7373"
         y="114.72581"
         style="font-style:italic;font-variant:normal;font-weight:bold;font-stretch:normal;line-height:0.89999998;font-family:'Asap Condensed';-inkscape-font-specification:'Asap Condensed, Bold Italic';letter-spacing:-0.20389631px;fill:#0f1926;fill-opacity:1;stroke-width:0.22237286">NECHCI STADION</tspan></text>
    <text
       id="text292"
       y="141.31122"
       x="103.64201"
       style="font-style:italic;font-variant:normal;font-weight:bold;font-stretch:normal;font-size:33.30379868px;line-height:0.89999998;font-family:'Asap Condensed';-inkscape-font-specification:'Asap Condensed, Bold Italic';letter-spacing:-0.35785139px;word-spacing:0px;display:inline;opacity:1;fill:#0f1926;fill-opacity:1;stroke:none;stroke-width:0.39027894"
       xml:space="preserve"
       inkscape:export-xdpi="96"
       inkscape:export-ydpi="96"><tspan
         dx="0 0 0 0.71382433 0 -0.25021479"
         style="font-style:italic;font-variant:normal;font-weight:bold;font-stretch:normal;line-height:0.89999998;font-family:'Asap Condensed';-inkscape-font-specification:'Asap Condensed, Bold Italic';letter-spacing:-0.35785139px;fill:#0f1926;fill-opacity:1;stroke-width:0.39027894"
         y="141.31122"
         x="103.64201"
         sodipodi:role="line"
         id="tspan290"><tspan
   style="fill:#d23440;fill-opacity:1;stroke-width:0.39027894"
   id="tspan1622"><tspan
   style="fill:#0f1926;fill-opacity:1;stroke-width:0.39027894"
   id="tspan1638">NA </tspan>DLUH</tspan>!</tspan></text>
    <path
       style="display:inline;opacity:1;fill:#ffffff;stroke:none;stroke-width:0.08024729"
       d="m 74.75608,104.0074 c -0.115588,1.05359 -0.224133,2.10825 -0.335314,3.16233 -0.08485,0.80538 0.494924,1.52197 1.300321,1.60687 l 8.722611,0.91966 c 0.80538,0.0848 1.52201,-0.4953 1.60688,-1.30066 l 0.30655,-2.90754 0.0301,-0.25885 z m -6.00997,15.16772 5.534911,0.58332 c 0.286285,2.21356 2.053725,3.94168 4.273167,4.17809 2.21976,0.23118 4.3083,-1.09047 5.0497,-3.19549 l 5.49465,0.57894 0.23008,-2.18175 -5.48416,-0.57792 c -0.2688,-2.23185 -2.04356,-3.98218 -4.27891,-4.22005 -2.23527,-0.23269 -4.335101,1.10896 -5.063237,3.23509 l -5.526792,-0.58267 z m 10.198548,-2.66461 c 0.0877,-0.004 0.17557,-0.003 0.26324,0.001 0.0427,0.003 0.0853,0.006 0.1279,0.0102 1.02973,0.11016 1.89908,0.81408 2.22101,1.79839 l -4.769884,-0.50281 c 0.449879,-0.77457 1.262894,-1.26706 2.157734,-1.30709 z m -2.368533,3.48986 4.732323,0.49875 c -0.52696,0.87265 -1.51056,1.36242 -2.52451,1.25702 -1.01398,-0.10801 -1.87426,-0.79215 -2.207813,-1.75577 z m -3.096003,8.60858 c -0.742651,-0.003 -1.377397,0.5541 -1.456984,1.30912 l -0.306554,2.90754 -0.02876,0.25817 11.625414,1.22183 0.0335,-0.25445 0.30655,-2.9072 c 0.0848,-0.80538 -0.4953,-1.52202 -1.30066,-1.60687 l -8.722611,-0.91967 c -0.05034,-0.005 -0.100385,-0.008 -0.149894,-0.008 z m -5.378252,3.02698 c 0.103172,0.15596 0.221245,0.30169 0.352235,0.43514 -0.13099,-0.13345 -0.249063,-0.27918 -0.352235,-0.43514 z m 1.023882,0.94539 c 0.332582,0.18344 0.707131,0.30501 1.109824,0.34749 -0.402693,-0.0425 -0.777242,-0.16405 -1.109824,-0.34749 z"
       id="path337"
       inkscape:connector-curvature="0"
       sodipodi:nodetypes="ccccccccccccccccccccccccccccccccccccccccccaca"
       inkscape:export-xdpi="96"
       inkscape:export-ydpi="96" />
    <g
       aria-label="NA DLUH!"
       style="font-style:italic;font-variant:normal;font-weight:bold;font-stretch:normal;font-size:33.30379868px;line-height:0.89999998;font-family:'Asap Condensed';-inkscape-font-specification:'Asap Condensed, Bold Italic';letter-spacing:-0.35785139px;word-spacing:0px;display:inline;opacity:1;fill:#0f1926;fill-opacity:1;stroke:none;stroke-width:0.39027894"
       id="text2599" />
  </g>
</svg>
