<?xml version="1.0" encoding="UTF-8" standalone="no"?>
<!-- Created with Inkscape (http://www.inkscape.org/) -->

<svg
   xmlns:dc="http://purl.org/dc/elements/1.1/"
   xmlns:cc="http://creativecommons.org/ns#"
   xmlns:rdf="http://www.w3.org/1999/02/22-rdf-syntax-ns#"
   xmlns:svg="http://www.w3.org/2000/svg"
   xmlns="http://www.w3.org/2000/svg"
   xmlns:sodipodi="http://sodipodi.sourceforge.net/DTD/sodipodi-0.dtd"
   xmlns:inkscape="http://www.inkscape.org/namespaces/inkscape"
   width="120.66486"
   height="120.66486"
   viewBox="0 0 31.925911 31.925911"
   version="1.1"
   id="svg8"
   inkscape:version="0.92.3 (2405546, 2018-03-11)"
   sodipodi:docname="logo-rect.svg"
   inkscape:export-filename="D:\Users\domin\Documents\Piráti\Grafika\Referendum\logo.png"
   inkscape:export-xdpi="96"
   inkscape:export-ydpi="96">
  <defs
     id="defs2" />
  <sodipodi:namedview
     id="base"
     pagecolor="#ffffff"
     bordercolor="#666666"
     borderopacity="1.0"
     inkscape:pageopacity="0.0"
     inkscape:pageshadow="2"
     inkscape:zoom="0.5"
     inkscape:cx="-626.54529"
     inkscape:cy="-231.32974"
     inkscape:document-units="px"
     inkscape:current-layer="layer1"
     showgrid="false"
     inkscape:window-width="1680"
     inkscape:window-height="1028"
     inkscape:window-x="0"
     inkscape:window-y="0"
     inkscape:window-maximized="0"
     showguides="false"
     units="px" />
  <metadata
     id="metadata5">
    <rdf:RDF>
      <cc:Work
         rdf:about="">
        <dc:format>image/svg+xml</dc:format>
        <dc:type
           rdf:resource="http://purl.org/dc/dcmitype/StillImage" />
        <dc:title />
      </cc:Work>
    </rdf:RDF>
  </metadata>
  <g
     inkscape:groupmode="layer"
     id="layer2"
     inkscape:label="pozadí"
     transform="translate(-33.06568,-17.995655)" />
  <g
     inkscape:label="Vrstva 1"
     inkscape:groupmode="layer"
     id="layer1"
     transform="translate(-33.06568,-29.245638)">
    <text
       xml:space="preserve"
       style="font-style:italic;font-variant:normal;font-weight:bold;font-stretch:normal;font-size:7.47440863000000011px;line-height:1.25;font-family:'Asap Condensed';-inkscape-font-specification:'Asap Condensed, Bold Italic';letter-spacing:0px;word-spacing:0px;opacity:1;fill:#293132;fill-opacity:1;stroke:none;stroke-width:0.08759074;"
       x="93.739746"
       y="38.244156"
       id="text506"><tspan
         id="tspan504"
         sodipodi:role="line"
         x="93.739746"
         y="45.270164"
         style="font-style:normal;font-variant:normal;font-weight:normal;font-stretch:normal;font-family:'Agency FB';-inkscape-font-specification:'Agency FB';fill:#293132;fill-opacity:1;stroke-width:0.08759074;" /></text>
    <path
       inkscape:connector-curvature="0"
       style="opacity:1;fill:#293132;fill-opacity:1;stroke-width:0.07021836"
       d="m 42.457338,29.245695 c -2.9733,-0.013 -5.51514,2.21673 -5.83377,5.2396 l -1.96297,18.6247 c -0.33987,3.22439 1.98207,6.09385 5.20646,6.43373 l 15.13261,1.5948 c 3.22439,0.33989 6.09385,-1.98205 6.43373,-5.20646 l 1.96328,-18.62469 c 0.33987,-3.22439 -1.9824,-6.09384 -5.20679,-6.43372 l -15.13259,-1.59513 c -0.20153,-0.0213 -0.40174,-0.0322 -0.59996,-0.0327 z m 3.48405,3.87982 c 0.0793,9.8e-4 0.15937,0.005 0.23985,0.0128 l 1.16546,0.12433 c -0.0926,0.84364 -0.17961,1.68789 -0.26864,2.53191 -0.068,0.64489 0.39653,1.21878 1.04142,1.28674 l 6.98417,0.73632 c 0.64487,0.068 1.21877,-0.39654 1.28674,-1.04142 l 0.24535,-2.32817 0.0242,-0.20712 1.16171,0.12424 c 1.28975,0.136 2.21879,1.28374 2.08283,2.57351 l -0.88951,8.43938 -4.39127,-0.46277 a 3.8626158,3.8626158 0 0 0 -3.4262,-3.37904 3.8626158,3.8626158 0 0 0 -4.05422,2.59026 l -4.42514,-0.46638 0.8895,-8.43932 c 0.12744,-1.20915 1.14432,-2.10103 2.33365,-2.09578 z m 4.96987,10.14888 a 2.1068812,2.1068812 0 0 1 0.10238,0.008 2.1068812,2.1068812 0 0 1 1.77854,1.43985 l -3.8194,-0.40245 a 2.1068812,2.1068812 0 0 1 1.93844,-1.0457 z m -8.37696,2.13257 4.43203,0.46686 a 3.8626158,3.8626158 0 0 0 3.4214,3.34555 3.8626158,3.8626158 0 0 0 4.04346,-2.55869 l 4.39964,0.46361 -0.88952,8.43962 c -0.136,1.28976 -1.28373,2.21848 -2.57349,2.08252 l -1.16919,-0.12441 0.0268,-0.20366 0.24534,-2.32784 c 0.068,-0.64488 -0.39654,-1.2188 -1.04142,-1.28676 l -6.98419,-0.7363 c -0.64487,-0.068 -1.21877,0.39654 -1.28674,1.04141 l -0.24533,2.32818 -0.0232,0.20686 -1.16264,-0.12427 c -1.28977,-0.136 -2.21849,-1.28376 -2.08253,-2.57351 z m 6.26984,0.6608 3.78923,0.39931 a 2.1068812,2.1068812 0 0 1 -2.02142,1.00629 2.1068812,2.1068812 0 0 1 -1.76781,-1.4056 z"
       id="path595-7" />
  </g>
</svg>
